<svg id="svg" version="1.1" width="400" height="324.63768115942025" xmlns="http://www.w3.org/2000/svg" xmlns:xlink="http://www.w3.org/1999/xlink" style="display: block;"><g id="svgg"><path id="path0" d="M343.582 60.065 C 343.582 60.690,343.649 60.946,343.730 60.633 C 343.812 60.321,343.812 59.809,343.730 59.497 C 343.649 59.184,343.582 59.440,343.582 60.065 M242.339 220.180 C 242.196 220.412,242.250 220.467,242.482 220.323 C 242.688 220.196,242.857 220.255,242.857 220.455 C 242.857 220.654,243.006 220.726,243.187 220.614 C 243.550 220.389,243.312 219.805,242.857 219.805 C 242.700 219.805,242.467 219.974,242.339 220.180 M302.381 255.998 C 302.381 256.255,302.576 256.540,302.814 256.632 C 303.052 256.723,303.247 256.674,303.247 256.523 C 303.247 256.372,303.052 256.087,302.814 255.889 C 302.487 255.618,302.381 255.645,302.381 255.998 " stroke="none" fill="#000000" fill-rule="evenodd"></path><path id="path1" d="M297.517 27.595 C 297.133 27.750,296.723 28.033,296.605 28.224 C 296.464 28.452,294.212 28.571,290.078 28.571 C 285.202 28.571,283.785 28.664,283.847 28.977 C 283.904 29.259,283.333 29.408,281.981 29.463 C 279.058 29.584,277.922 29.838,277.922 30.372 C 277.922 30.734,277.455 30.844,275.918 30.844 C 274.630 30.844,273.730 31.011,273.398 31.312 C 273.114 31.569,272.091 31.815,271.120 31.859 C 269.992 31.911,269.163 32.136,268.814 32.484 C 268.480 32.818,267.542 33.090,266.391 33.185 C 265.158 33.287,264.378 33.525,264.120 33.878 C 263.853 34.243,263.249 34.416,262.237 34.416 C 261.267 34.416,260.654 34.581,260.481 34.890 C 260.297 35.218,259.574 35.385,258.148 35.427 C 256.443 35.479,256.055 35.594,255.925 36.089 C 255.812 36.523,255.465 36.688,254.670 36.688 C 253.910 36.688,253.571 36.838,253.571 37.175 C 253.571 37.498,253.249 37.662,252.619 37.662 C 251.346 37.662,249.912 38.231,250.162 38.636 C 250.288 38.839,249.635 38.961,248.419 38.961 C 247.124 38.961,246.312 39.124,245.988 39.448 C 245.720 39.716,245.210 39.935,244.855 39.935 C 243.865 39.935,243.182 40.281,243.182 40.781 C 243.182 41.043,242.851 41.234,242.397 41.234 C 241.276 41.234,240.584 41.557,240.584 42.080 C 240.584 42.421,240.060 42.532,238.464 42.532 C 236.878 42.532,236.296 42.655,236.156 43.019 C 236.041 43.320,235.548 43.506,234.868 43.506 C 233.983 43.506,233.766 43.634,233.766 44.156 C 233.766 44.669,233.550 44.805,232.737 44.805 C 232.170 44.805,231.445 45.043,231.124 45.333 C 230.803 45.623,230.168 45.860,229.713 45.860 C 229.257 45.860,228.804 45.991,228.705 46.150 C 228.607 46.309,228.391 46.355,228.224 46.252 C 228.058 46.150,227.922 46.293,227.922 46.572 C 227.922 46.930,227.602 47.078,226.824 47.078 C 225.997 47.078,225.683 47.239,225.555 47.729 C 225.441 48.165,225.213 48.313,224.864 48.179 C 224.149 47.905,223.377 48.619,223.377 49.553 C 223.377 50.494,229.620 50.796,229.974 49.872 C 230.126 49.478,231.892 49.088,233.875 49.013 C 234.220 48.999,234.404 48.815,234.312 48.575 C 234.196 48.273,234.652 48.142,235.989 48.093 C 237.150 48.050,237.957 47.851,238.185 47.552 C 238.437 47.220,239.193 47.078,240.701 47.078 C 242.424 47.078,242.988 46.948,243.506 46.429 C 243.996 45.939,244.589 45.779,245.915 45.779 C 247.973 45.779,248.701 45.558,248.701 44.933 C 248.701 44.584,249.293 44.481,251.283 44.481 C 253.217 44.481,253.931 44.361,254.131 44.003 C 254.345 43.621,255.303 43.517,258.893 43.487 C 263.027 43.452,263.401 43.399,263.550 42.828 C 263.698 42.262,264.045 42.208,267.554 42.208 C 270.679 42.208,271.449 42.114,271.677 41.707 C 272.066 41.011,289.179 41.129,289.034 41.826 C 288.978 42.096,289.220 42.234,289.683 42.196 C 292.269 41.985,295.130 42.236,295.130 42.673 C 295.130 43.247,295.757 43.423,298.048 43.492 C 299.073 43.523,300.049 43.744,300.346 44.013 C 300.668 44.304,301.557 44.481,302.704 44.481 C 304.329 44.481,304.545 44.557,304.545 45.130 C 304.545 45.491,304.762 45.779,305.032 45.779 C 305.300 45.779,305.817 46.077,306.181 46.440 C 306.544 46.804,306.984 47.014,307.158 46.906 C 307.332 46.799,307.857 47.013,308.326 47.381 C 308.795 47.750,309.368 48.052,309.600 48.052 C 309.832 48.052,310.114 48.344,310.227 48.701 C 310.341 49.058,310.698 49.351,311.021 49.351 C 311.344 49.351,311.791 49.570,312.013 49.838 C 312.235 50.106,312.691 50.325,313.027 50.325 C 313.409 50.325,313.636 50.555,313.636 50.941 C 313.636 51.664,315.218 53.571,315.819 53.571 C 316.047 53.571,316.234 53.864,316.234 54.221 C 316.234 54.582,316.450 54.870,316.721 54.870 C 316.989 54.870,317.208 55.100,317.208 55.380 C 317.208 55.661,317.427 56.110,317.695 56.378 C 317.963 56.645,318.182 57.294,318.182 57.819 C 318.182 58.371,318.455 59.007,318.831 59.329 C 319.290 59.721,319.481 60.286,319.481 61.252 C 319.481 62.333,319.616 62.662,320.130 62.825 C 320.735 63.017,321.009 64.241,320.803 65.828 C 320.774 66.051,321.013 66.238,321.333 66.244 C 321.886 66.253,321.885 66.271,321.321 66.599 C 320.813 66.895,320.735 67.331,320.785 69.593 C 320.968 77.792,320.810 80.466,320.130 80.682 C 319.584 80.855,319.481 81.173,319.481 82.671 C 319.481 83.714,319.353 84.375,319.172 84.263 C 318.662 83.948,318.272 85.114,318.216 87.127 C 318.183 88.304,317.982 89.208,317.685 89.504 C 317.423 89.766,317.208 90.482,317.208 91.095 C 317.208 91.868,317.059 92.208,316.721 92.208 C 316.453 92.208,316.223 92.317,316.210 92.451 C 316.096 93.598,315.815 94.345,315.413 94.570 C 315.095 94.748,314.935 95.363,314.935 96.407 C 314.935 97.711,314.824 98.005,314.276 98.148 C 313.914 98.243,313.639 98.443,313.665 98.592 C 313.823 99.487,313.573 100.325,313.149 100.325 C 312.809 100.325,312.662 100.667,312.662 101.461 C 312.662 102.263,312.517 102.597,312.167 102.597 C 311.895 102.597,311.533 102.963,311.364 103.409 C 311.194 103.856,310.869 104.223,310.641 104.226 C 310.327 104.230,310.334 104.298,310.670 104.511 C 311.017 104.731,311.024 104.821,310.700 104.929 C 310.473 105.005,310.233 105.417,310.168 105.844 C 310.103 106.272,309.834 106.860,309.570 107.151 C 309.307 107.443,309.091 107.925,309.091 108.224 C 309.091 108.522,308.937 108.766,308.750 108.766 C 308.562 108.766,308.199 109.268,307.943 109.880 C 307.687 110.493,307.329 111.086,307.148 111.198 C 306.966 111.310,306.818 111.759,306.818 112.194 C 306.818 112.703,306.633 112.987,306.301 112.987 C 306.016 112.987,305.707 113.279,305.614 113.636 C 305.520 113.994,305.242 114.286,304.995 114.286 C 304.677 114.286,304.545 114.724,304.545 115.781 C 304.545 116.954,304.444 117.238,304.075 117.097 C 303.745 116.970,303.664 117.072,303.805 117.440 C 303.939 117.789,303.880 117.885,303.627 117.729 C 303.376 117.574,303.247 117.765,303.247 118.289 C 303.247 118.840,303.076 119.070,302.691 119.039 C 302.380 119.013,302.079 119.270,302.007 119.620 C 301.936 119.964,301.675 120.450,301.426 120.698 C 301.177 120.947,300.974 121.352,300.974 121.599 C 300.974 121.846,300.601 122.422,300.145 122.878 C 299.689 123.334,299.399 123.842,299.501 124.006 C 299.603 124.171,299.515 124.412,299.306 124.541 C 299.052 124.697,299.013 124.634,299.188 124.351 C 299.362 124.069,299.324 124.004,299.076 124.157 C 298.870 124.285,298.701 124.746,298.701 125.181 C 298.701 125.617,298.535 125.974,298.333 125.974 C 297.797 125.974,296.429 127.541,296.429 128.155 C 296.429 128.444,296.332 128.584,296.215 128.466 C 295.845 128.097,295.130 128.942,295.130 129.748 C 295.130 130.217,294.939 130.519,294.643 130.519 C 294.375 130.519,294.179 130.629,294.207 130.763 C 294.314 131.267,293.744 132.143,293.309 132.143 C 293.061 132.143,292.874 132.252,292.896 132.386 C 293.026 133.213,292.798 134.092,292.451 134.097 C 291.753 134.106,290.584 135.605,290.584 136.491 C 290.584 136.976,290.401 137.338,290.156 137.338 C 289.605 137.338,288.312 138.819,288.312 139.451 C 288.312 139.717,288.100 139.935,287.841 139.935 C 287.582 139.935,287.253 140.129,287.110 140.365 C 286.967 140.602,286.597 140.889,286.288 141.002 C 285.947 141.128,285.801 141.406,285.917 141.708 C 286.052 142.060,285.907 142.208,285.424 142.208 C 285.048 142.208,284.740 142.394,284.740 142.623 C 284.740 142.851,284.448 143.288,284.091 143.593 C 283.734 143.899,283.442 144.443,283.442 144.802 C 283.442 145.166,283.226 145.455,282.955 145.455 C 282.684 145.455,282.468 145.743,282.468 146.104 C 282.468 146.537,282.251 146.753,281.818 146.753 C 281.385 146.753,281.169 146.970,281.169 147.403 C 281.169 147.763,280.952 148.052,280.682 148.052 C 280.414 148.052,280.195 148.254,280.195 148.501 C 280.195 148.748,279.903 149.027,279.545 149.120 C 279.188 149.213,278.896 149.523,278.896 149.807 C 278.896 150.092,278.756 150.325,278.585 150.325 C 278.021 150.325,276.623 152.089,276.623 152.800 C 276.623 153.223,276.369 153.562,275.974 153.666 C 275.617 153.759,275.325 154.036,275.325 154.282 C 275.325 154.527,274.893 154.891,274.365 155.090 C 273.759 155.319,273.328 155.763,273.194 156.297 C 273.077 156.762,272.778 157.143,272.530 157.143 C 272.281 157.143,272.078 157.435,272.078 157.792 C 272.078 158.231,271.861 158.442,271.409 158.442 C 271.042 158.442,270.831 158.588,270.942 158.767 C 271.053 158.946,270.769 159.234,270.312 159.408 C 269.855 159.582,269.481 159.947,269.481 160.219 C 269.481 160.492,269.261 160.714,268.994 160.714 C 268.726 160.714,268.506 160.933,268.506 161.201 C 268.506 161.469,268.297 161.688,268.041 161.688 C 267.786 161.688,267.483 161.981,267.370 162.338 C 267.257 162.695,266.955 162.987,266.699 162.987 C 266.443 162.987,266.251 163.097,266.272 163.231 C 266.386 163.948,266.166 164.286,265.584 164.286 C 265.224 164.286,264.935 164.502,264.935 164.773 C 264.935 165.041,264.716 165.260,264.448 165.260 C 264.177 165.260,263.961 165.548,263.961 165.909 C 263.961 166.342,263.745 166.558,263.312 166.558 C 262.955 166.558,262.680 166.668,262.701 166.802 C 262.793 167.387,262.644 167.947,262.449 167.752 C 262.155 167.458,261.328 168.186,261.549 168.543 C 261.647 168.702,261.426 168.831,261.058 168.831 C 260.690 168.831,260.390 169.033,260.390 169.280 C 260.390 169.527,260.097 169.806,259.740 169.899 C 259.383 169.993,259.091 170.302,259.091 170.586 C 259.091 170.871,258.872 171.104,258.604 171.104 C 258.333 171.104,258.117 171.392,258.117 171.753 C 258.117 172.186,257.900 172.403,257.468 172.403 C 257.107 172.403,256.818 172.619,256.818 172.890 C 256.818 173.157,256.599 173.377,256.331 173.377 C 256.061 173.377,255.844 173.665,255.844 174.026 C 255.844 174.459,255.628 174.675,255.195 174.675 C 254.838 174.675,254.545 174.862,254.545 175.091 C 254.545 175.320,254.114 175.670,253.586 175.869 C 252.994 176.093,252.548 176.543,252.422 177.046 C 252.310 177.494,251.938 177.934,251.596 178.023 C 251.254 178.113,250.974 178.409,250.974 178.682 C 250.974 178.981,250.621 179.218,250.081 179.280 C 249.392 179.360,249.117 179.624,248.878 180.438 C 248.707 181.019,248.413 181.494,248.225 181.494 C 248.037 181.494,247.701 181.786,247.478 182.143 C 247.242 182.520,246.721 182.792,246.233 182.792 C 245.668 182.792,245.339 183.003,245.225 183.438 C 245.132 183.793,244.937 184.010,244.792 183.920 C 244.646 183.830,244.434 184.051,244.320 184.411 C 244.206 184.771,243.918 185.065,243.682 185.065 C 243.445 185.065,243.167 185.284,243.064 185.552 C 242.962 185.820,242.654 186.039,242.380 186.039 C 242.100 186.039,241.883 186.322,241.883 186.688 C 241.883 187.092,241.667 187.338,241.312 187.338 C 240.998 187.338,240.565 187.619,240.350 187.963 C 240.135 188.307,239.625 188.635,239.217 188.693 C 238.808 188.751,238.474 189.018,238.474 189.286 C 238.474 189.554,238.280 189.773,238.042 189.773 C 237.804 189.773,237.423 190.028,237.195 190.341 C 236.966 190.653,236.613 190.909,236.409 190.909 C 236.205 190.909,236.039 191.111,236.039 191.358 C 236.039 191.605,235.747 191.884,235.390 191.977 C 235.032 192.071,234.740 192.380,234.740 192.664 C 234.740 192.949,234.538 193.182,234.291 193.182 C 234.044 193.182,233.762 193.489,233.664 193.864 C 233.566 194.239,233.335 194.453,233.151 194.339 C 232.967 194.225,232.518 194.430,232.155 194.793 C 231.791 195.157,231.261 195.455,230.976 195.455 C 230.692 195.455,230.384 195.742,230.292 196.093 C 230.200 196.444,229.848 196.819,229.510 196.927 C 229.173 197.034,228.896 197.258,228.896 197.424 C 228.896 197.591,228.677 197.727,228.409 197.727 C 228.139 197.727,227.922 198.016,227.922 198.377 C 227.922 198.810,227.706 199.026,227.273 199.026 C 226.916 199.026,226.623 199.234,226.623 199.487 C 226.623 199.741,226.184 200.045,225.647 200.163 C 225.109 200.281,224.750 200.507,224.848 200.666 C 224.946 200.825,224.655 201.048,224.202 201.162 C 223.748 201.276,223.377 201.572,223.377 201.821 C 223.377 202.069,223.144 202.273,222.859 202.273 C 222.575 202.273,222.265 202.565,222.172 202.922 C 222.050 203.388,221.729 203.571,221.036 203.571 C 220.358 203.571,220.021 203.756,219.907 204.191 C 219.818 204.531,219.452 204.887,219.093 204.981 C 218.735 205.074,218.538 205.307,218.655 205.498 C 218.785 205.707,218.556 205.844,218.078 205.844 C 217.594 205.844,216.766 206.349,215.948 207.143 C 215.212 207.857,214.464 208.442,214.285 208.442 C 214.107 208.442,213.961 208.661,213.961 208.929 C 213.961 209.196,213.742 209.416,213.474 209.416 C 213.206 209.416,212.987 209.635,212.987 209.903 C 212.987 210.227,212.663 210.390,212.016 210.390 C 211.396 210.390,210.898 210.625,210.639 211.039 C 210.416 211.396,210.049 211.688,209.824 211.688 C 209.600 211.688,209.416 211.981,209.416 212.338 C 209.416 212.840,209.199 212.987,208.458 212.987 C 207.931 212.987,207.383 213.181,207.240 213.417 C 207.097 213.654,206.725 213.942,206.412 214.057 C 206.100 214.171,205.844 214.489,205.844 214.763 C 205.844 215.078,205.544 215.260,205.022 215.260 C 204.570 215.260,204.116 215.479,204.014 215.747 C 203.911 216.015,203.624 216.234,203.377 216.234 C 203.130 216.234,202.745 216.526,202.522 216.883 C 202.299 217.240,201.933 217.532,201.708 217.532 C 201.483 217.532,201.299 217.755,201.299 218.028 C 201.299 218.321,200.891 218.604,200.297 218.723 C 199.746 218.833,199.219 219.122,199.126 219.364 C 199.033 219.607,198.680 219.805,198.342 219.805 C 197.944 219.805,197.727 220.034,197.727 220.455 C 197.727 220.874,197.497 221.118,197.078 221.144 C 195.998 221.212,195.844 221.254,195.563 221.562 C 195.403 221.737,195.478 221.749,195.748 221.593 C 196.055 221.415,196.128 221.451,195.973 221.703 C 195.845 221.909,195.444 222.078,195.080 222.078 C 194.693 222.078,194.350 222.346,194.250 222.727 C 194.157 223.084,193.878 223.377,193.631 223.377 C 193.384 223.377,193.182 223.511,193.182 223.676 C 193.182 223.841,192.670 224.144,192.045 224.351 C 191.420 224.557,190.909 224.934,190.909 225.188 C 190.909 225.499,190.539 225.649,189.773 225.649 C 188.979 225.649,188.636 225.796,188.636 226.136 C 188.636 226.404,188.404 226.623,188.119 226.623 C 187.834 226.623,187.527 226.907,187.436 227.255 C 187.325 227.680,186.937 227.918,186.249 227.985 C 185.605 228.048,185.227 228.263,185.227 228.568 C 185.227 228.834,184.855 229.127,184.400 229.218 C 183.579 229.382,182.920 229.829,181.886 230.925 C 181.591 231.238,180.959 231.494,180.482 231.494 C 180.005 231.494,179.538 231.694,179.444 231.940 C 179.350 232.185,178.752 232.483,178.115 232.603 C 177.478 232.722,176.992 232.981,177.034 233.178 C 177.076 233.374,176.672 233.658,176.136 233.807 C 175.601 233.957,174.695 234.520,174.125 235.059 C 173.508 235.641,172.738 236.039,172.227 236.039 C 171.641 236.039,171.314 236.245,171.198 236.688 C 171.105 237.045,170.769 237.338,170.451 237.338 C 170.134 237.338,169.791 237.557,169.688 237.825 C 169.585 238.093,169.241 238.315,168.923 238.319 C 168.604 238.323,167.979 238.612,167.532 238.961 C 167.086 239.310,166.392 239.599,165.990 239.603 C 165.571 239.607,165.260 239.811,165.260 240.083 C 165.260 240.365,164.804 240.641,164.123 240.768 C 163.473 240.890,162.987 241.174,162.987 241.432 C 162.987 241.853,162.402 242.032,161.440 241.906 C 161.215 241.877,160.949 242.064,160.850 242.323 C 160.751 242.582,160.168 242.887,159.555 243.002 C 158.893 243.127,158.442 243.403,158.442 243.684 C 158.442 243.943,158.209 244.156,157.924 244.156 C 157.640 244.156,157.330 244.448,157.237 244.805 C 157.118 245.262,156.794 245.455,156.147 245.455 C 155.641 245.455,155.110 245.659,154.967 245.910 C 154.825 246.160,154.269 246.416,153.734 246.478 C 153.198 246.540,152.569 246.847,152.335 247.159 C 152.102 247.472,151.602 247.727,151.225 247.727 C 150.847 247.727,150.282 247.959,149.970 248.242 C 149.657 248.524,148.915 248.796,148.321 248.845 C 146.773 248.972,146.753 248.980,146.753 249.478 C 146.753 249.726,146.386 250.022,145.938 250.134 C 144.812 250.417,142.984 251.564,143.182 251.864 C 143.271 252.000,142.577 252.155,141.640 252.209 C 140.200 252.291,139.935 252.405,139.935 252.939 C 139.935 253.446,139.708 253.571,138.789 253.571 C 138.069 253.571,137.572 253.753,137.455 254.058 C 137.352 254.326,136.927 254.545,136.510 254.545 C 136.092 254.545,135.551 254.831,135.306 255.181 C 135.024 255.584,134.416 255.846,133.642 255.898 C 132.971 255.943,132.337 256.118,132.232 256.287 C 132.122 256.466,132.220 256.484,132.468 256.331 C 132.715 256.178,132.813 256.197,132.703 256.375 C 132.598 256.544,131.955 256.716,131.273 256.757 C 130.504 256.803,129.827 257.076,129.493 257.474 C 129.197 257.828,128.659 258.117,128.299 258.117 C 127.939 258.117,127.425 258.336,127.157 258.604 C 126.889 258.872,126.303 259.091,125.854 259.091 C 125.405 259.091,124.947 259.239,124.834 259.421 C 124.722 259.602,124.494 259.667,124.328 259.564 C 124.162 259.461,124.026 259.605,124.026 259.883 C 124.026 260.259,123.684 260.390,122.697 260.390 C 121.641 260.390,121.333 260.523,121.198 261.039 C 121.065 261.546,120.755 261.688,119.783 261.688 C 119.053 261.688,118.432 261.877,118.279 262.145 C 118.136 262.397,117.508 262.652,116.883 262.714 C 116.258 262.775,115.510 263.080,115.222 263.393 C 114.885 263.758,114.216 263.961,113.355 263.961 C 112.379 263.961,112.013 264.094,112.013 264.448 C 112.013 264.776,111.685 264.935,111.009 264.935 C 110.277 264.935,109.958 265.112,109.834 265.584 C 109.682 266.169,107.613 266.474,105.630 266.205 C 105.512 266.189,105.286 266.408,105.127 266.692 C 104.962 266.986,104.392 267.218,103.799 267.231 C 102.502 267.259,101.542 267.622,101.681 268.032 C 101.738 268.204,101.161 268.389,100.398 268.444 C 99.482 268.511,99.087 268.667,99.234 268.905 C 99.377 269.137,99.270 269.194,98.933 269.065 C 98.561 268.922,98.463 269.004,98.595 269.348 C 98.697 269.614,98.653 269.808,98.498 269.780 C 96.775 269.465,95.779 269.836,95.779 270.791 L 95.779 271.777 100.788 271.736 C 104.774 271.704,105.833 271.603,105.973 271.238 C 106.105 270.893,106.826 270.779,108.875 270.779 C 111.109 270.779,111.750 270.662,112.426 270.130 C 112.880 269.773,113.686 269.481,114.216 269.481 C 114.746 269.481,115.362 269.261,115.584 268.994 C 115.851 268.672,116.577 268.506,117.715 268.506 C 118.665 268.506,119.529 268.367,119.634 268.196 C 119.740 268.025,120.039 267.967,120.300 268.067 C 120.565 268.169,120.862 268.020,120.974 267.728 C 121.130 267.320,121.657 267.208,123.411 267.208 C 125.184 267.208,125.649 267.107,125.649 266.721 C 125.649 266.362,126.023 266.234,127.067 266.234 C 127.992 266.234,128.770 266.009,129.309 265.584 C 129.894 265.125,130.627 264.935,131.819 264.935 C 133.229 264.935,133.530 264.830,133.672 264.286 C 133.814 263.745,134.134 263.630,135.590 263.596 C 136.551 263.573,137.484 263.519,137.662 263.474 C 137.841 263.429,138.097 263.372,138.231 263.347 C 138.364 263.322,138.255 263.160,137.987 262.987 C 137.636 262.760,137.938 262.671,139.073 262.667 C 140.357 262.663,140.676 262.546,140.811 262.029 C 140.943 261.522,141.310 261.376,142.647 261.298 C 143.772 261.233,144.292 261.069,144.237 260.795 C 144.192 260.572,144.265 260.407,144.399 260.428 C 146.020 260.684,147.727 260.331,147.727 259.740 C 147.727 259.170,147.944 259.091,149.513 259.091 C 150.884 259.091,151.299 258.978,151.299 258.604 C 151.299 258.336,151.579 258.117,151.921 258.117 C 152.889 258.117,153.571 257.767,153.571 257.270 C 153.571 256.939,154.047 256.818,155.357 256.818 C 156.339 256.818,157.126 256.709,157.104 256.575 C 156.969 255.719,157.246 255.519,158.564 255.519 C 159.431 255.519,160.143 255.330,160.390 255.032 C 160.612 254.765,160.995 254.545,161.241 254.545 C 161.487 254.545,161.688 254.253,161.688 253.896 C 161.688 253.304,161.905 253.247,164.123 253.247 L 166.558 253.247 166.558 254.209 C 166.558 254.840,166.783 255.292,167.208 255.519 C 167.565 255.711,167.857 256.081,167.857 256.343 C 167.857 256.604,168.076 256.818,168.344 256.818 C 168.612 256.818,168.831 257.042,168.831 257.315 C 168.831 257.589,169.050 257.897,169.318 257.999 C 169.601 258.108,169.805 258.594,169.805 259.156 C 169.805 259.853,169.988 260.174,170.455 260.296 C 170.812 260.389,171.104 260.667,171.104 260.914 C 171.104 261.162,171.396 261.364,171.753 261.364 C 172.114 261.364,172.403 261.580,172.403 261.851 C 172.403 262.352,172.830 262.921,174.513 264.663 C 175.049 265.217,175.268 265.567,175.000 265.441 C 174.698 265.299,174.728 265.388,175.081 265.677 C 175.394 265.933,175.649 266.383,175.649 266.675 C 175.649 267.067,175.949 267.208,176.786 267.208 C 177.609 267.208,177.922 267.350,177.922 267.725 C 177.922 268.010,178.214 268.319,178.571 268.412 C 178.929 268.506,179.221 268.784,179.221 269.031 C 179.221 269.278,179.513 269.481,179.870 269.481 C 180.303 269.481,180.519 269.697,180.519 270.130 C 180.519 270.487,180.721 270.779,180.967 270.779 C 181.213 270.779,181.596 270.998,181.818 271.266 C 182.040 271.534,182.570 271.753,182.994 271.753 C 183.550 271.753,183.766 271.935,183.766 272.403 C 183.766 272.835,183.983 273.052,184.416 273.052 C 184.773 273.052,185.066 273.235,185.067 273.458 C 185.070 273.922,187.374 275.325,188.133 275.325 C 188.420 275.325,188.636 275.604,188.636 275.974 C 188.636 276.450,188.853 276.623,189.448 276.623 C 189.953 276.623,190.260 276.807,190.260 277.110 C 190.260 277.378,190.478 277.597,190.744 277.597 C 191.010 277.597,191.411 277.890,191.634 278.247 C 191.857 278.604,192.296 278.896,192.611 278.896 C 192.925 278.896,193.182 279.115,193.182 279.383 C 193.182 279.686,193.488 279.870,193.991 279.870 C 194.448 279.870,194.976 280.152,195.205 280.519 C 195.428 280.877,195.868 281.169,196.182 281.169 C 196.496 281.169,196.753 281.381,196.753 281.641 C 196.753 281.924,197.209 282.199,197.890 282.327 C 198.540 282.449,199.026 282.732,199.026 282.991 C 199.026 283.239,199.228 283.442,199.475 283.442 C 199.722 283.442,200.001 283.734,200.094 284.091 C 200.196 284.479,200.537 284.740,200.944 284.740 C 201.331 284.740,201.623 284.949,201.623 285.227 C 201.623 285.495,201.733 285.697,201.867 285.676 C 202.797 285.529,203.884 285.775,203.815 286.117 C 203.770 286.338,204.209 286.660,204.789 286.833 C 205.369 287.006,205.844 287.336,205.844 287.567 C 205.844 287.798,206.119 287.987,206.456 287.987 C 206.794 287.987,207.143 288.277,207.237 288.636 C 207.361 289.109,207.680 289.286,208.411 289.286 C 209.088 289.286,209.416 289.445,209.416 289.773 C 209.416 290.041,209.562 290.278,209.740 290.300 C 209.919 290.323,210.211 290.377,210.390 290.422 C 210.568 290.467,210.933 290.522,211.201 290.544 C 211.469 290.566,211.688 290.804,211.688 291.071 C 211.688 291.339,211.928 291.558,212.221 291.558 C 212.514 291.558,212.919 291.786,213.122 292.064 C 213.495 292.572,214.158 292.787,215.503 292.832 C 215.925 292.847,216.234 293.063,216.234 293.344 C 216.234 293.687,216.580 293.831,217.401 293.831 C 218.238 293.831,218.609 293.991,218.716 294.399 C 218.813 294.765,219.229 294.994,219.886 295.041 C 220.447 295.081,221.031 295.337,221.184 295.609 C 221.384 295.966,221.999 296.104,223.393 296.104 C 224.892 296.104,225.470 296.249,225.974 296.753 C 226.435 297.215,227.056 297.403,228.119 297.403 C 229.315 297.403,229.577 297.500,229.428 297.890 C 229.309 298.200,229.443 298.390,229.799 298.413 C 231.752 298.540,232.614 298.769,233.024 299.269 C 233.308 299.616,233.399 299.648,233.256 299.351 C 233.066 298.955,233.104 298.940,233.459 299.269 C 233.750 299.540,235.015 299.675,237.240 299.675 C 240.113 299.675,240.673 299.764,241.212 300.303 C 241.791 300.882,242.392 300.934,248.923 300.980 C 252.819 301.007,256.299 301.043,256.656 301.059 C 259.008 301.169,259.091 301.106,259.091 299.201 C 259.091 298.185,258.918 297.279,258.685 297.080 C 258.462 296.888,257.987 296.506,257.630 296.231 C 257.273 295.956,257.200 295.826,257.468 295.942 C 257.735 296.057,257.671 295.922,257.324 295.641 C 256.978 295.360,256.430 295.130,256.107 295.130 C 255.784 295.130,255.519 294.911,255.519 294.643 C 255.519 294.375,255.300 294.156,255.032 294.156 C 254.765 294.156,254.545 293.933,254.545 293.661 C 254.545 293.389,254.171 293.024,253.714 292.850 C 253.208 292.657,252.974 292.387,253.115 292.158 C 253.254 291.934,253.205 291.870,252.995 292.001 C 252.801 292.120,252.551 292.070,252.438 291.888 C 252.326 291.707,251.951 291.558,251.604 291.558 C 251.258 291.558,250.974 291.339,250.974 291.071 C 250.974 290.804,250.755 290.584,250.487 290.584 C 250.219 290.584,250.000 290.375,250.000 290.119 C 250.000 289.863,249.708 289.561,249.351 289.448 C 248.994 289.335,248.701 289.033,248.701 288.777 C 248.701 288.521,248.409 288.312,248.052 288.312 C 247.619 288.312,247.403 288.095,247.403 287.662 C 247.403 287.302,247.186 287.013,246.916 287.013 C 246.648 287.013,246.429 286.794,246.429 286.526 C 246.429 286.255,246.140 286.039,245.779 286.039 C 245.346 286.039,245.130 285.823,245.130 285.390 C 245.130 284.957,244.913 284.740,244.481 284.740 C 244.120 284.740,243.831 284.524,243.831 284.253 C 243.831 283.985,243.612 283.766,243.344 283.766 C 243.076 283.766,242.857 283.533,242.857 283.249 C 242.857 282.964,242.557 282.653,242.189 282.557 C 241.793 282.453,241.591 282.201,241.692 281.938 C 241.787 281.691,241.659 281.494,241.404 281.494 C 241.152 281.494,240.755 281.238,240.522 280.925 C 240.288 280.613,239.766 280.311,239.360 280.254 C 238.600 280.148,237.013 278.781,237.013 278.232 C 237.013 278.062,236.794 277.922,236.526 277.922 C 236.258 277.922,236.039 277.689,236.039 277.405 C 236.039 277.120,235.747 276.811,235.390 276.717 C 235.032 276.624,234.740 276.346,234.740 276.098 C 234.740 275.851,234.521 275.649,234.253 275.649 C 233.985 275.649,233.766 275.440,233.766 275.184 C 233.766 274.928,233.474 274.626,233.117 274.513 C 232.760 274.400,232.468 274.084,232.468 273.811 C 232.468 273.539,232.183 273.242,231.836 273.151 C 231.411 273.040,231.173 272.652,231.106 271.964 C 231.051 271.401,230.841 270.972,230.639 271.010 C 230.437 271.047,230.013 270.792,229.696 270.442 C 229.379 270.092,228.851 269.805,228.521 269.805 C 228.072 269.805,227.922 269.562,227.922 268.834 C 227.922 268.214,227.687 267.716,227.273 267.457 C 226.916 267.234,226.623 266.868,226.623 266.643 C 226.623 266.418,226.484 266.234,226.313 266.234 C 225.979 266.234,224.351 264.704,224.351 264.390 C 224.351 264.285,224.047 263.936,223.676 263.614 C 223.304 263.292,222.956 262.764,222.902 262.440 C 222.848 262.116,222.640 261.887,222.441 261.932 C 222.241 261.976,222.078 261.648,222.078 261.201 C 222.078 260.622,221.902 260.390,221.465 260.390 C 221.021 260.390,220.793 260.076,220.638 259.253 C 220.521 258.628,220.286 258.117,220.115 258.117 C 219.945 258.117,219.805 257.893,219.805 257.620 C 219.805 257.346,219.561 257.029,219.262 256.914 C 218.283 256.538,217.532 255.537,217.532 254.607 C 217.532 254.105,217.240 253.380,216.883 252.997 C 216.526 252.614,216.234 251.865,216.234 251.334 C 216.234 250.654,216.042 250.308,215.584 250.162 C 215.175 250.032,214.935 249.671,214.935 249.186 C 214.935 248.762,214.766 248.311,214.560 248.183 C 214.312 248.030,214.274 248.095,214.448 248.377 C 214.604 248.630,214.583 248.723,214.395 248.606 C 214.221 248.499,214.048 247.636,214.010 246.689 C 213.961 245.433,213.769 244.822,213.302 244.428 C 212.314 243.596,212.322 234.892,213.312 234.578 C 213.763 234.435,213.961 234.087,213.961 233.436 C 213.961 232.918,214.192 232.371,214.477 232.211 C 214.761 232.052,214.980 231.826,214.964 231.708 C 214.819 230.640,215.001 230.195,215.584 230.195 C 215.988 230.195,216.234 229.978,216.234 229.624 C 216.234 229.309,216.532 228.866,216.896 228.639 C 217.260 228.412,217.470 228.084,217.364 227.911 C 217.257 227.739,217.413 227.597,217.710 227.597 C 218.066 227.597,218.185 227.425,218.058 227.094 C 217.952 226.816,217.994 226.669,218.152 226.767 C 218.309 226.865,218.535 226.694,218.652 226.387 C 218.836 225.910,218.909 225.898,219.168 226.308 C 219.422 226.709,219.471 226.694,219.476 226.218 C 219.478 225.905,219.713 225.649,219.998 225.649 C 220.283 225.649,220.592 225.357,220.685 225.000 C 220.779 224.641,221.128 224.351,221.466 224.351 C 221.861 224.351,222.078 224.121,222.078 223.701 C 222.078 223.176,222.294 223.052,223.214 223.052 C 224.008 223.052,224.351 222.905,224.351 222.565 C 224.351 222.205,224.728 222.078,225.800 222.078 C 226.918 222.078,227.330 221.929,227.597 221.429 C 227.886 220.890,228.277 220.779,229.892 220.779 C 231.323 220.779,231.888 220.650,232.025 220.292 C 232.275 219.641,241.822 219.567,242.515 220.211 C 242.868 220.539,242.903 220.531,242.697 220.169 C 242.522 219.862,242.584 219.773,242.893 219.885 C 243.141 219.975,243.308 220.211,243.264 220.410 C 243.220 220.609,243.440 220.750,243.751 220.724 C 246.419 220.501,248.634 220.810,248.795 221.429 C 248.945 222.000,249.238 222.078,251.234 222.078 C 252.950 222.078,253.547 222.196,253.689 222.565 C 253.798 222.850,254.285 223.052,254.860 223.052 C 255.485 223.052,255.844 223.217,255.844 223.504 C 255.844 224.076,256.553 224.351,258.026 224.351 C 258.697 224.351,259.337 224.563,259.551 224.856 C 259.923 225.365,260.586 225.579,261.932 225.625 C 262.340 225.638,262.662 225.856,262.662 226.117 C 262.662 226.423,263.083 226.619,263.880 226.685 C 264.692 226.752,265.102 226.948,265.112 227.273 C 265.120 227.541,265.299 227.725,265.508 227.682 C 265.718 227.639,266.045 227.895,266.235 228.250 C 266.474 228.695,266.915 228.896,267.656 228.896 C 268.318 228.896,268.956 229.145,269.318 229.545 C 269.683 229.948,270.318 230.195,270.992 230.195 C 271.741 230.195,272.078 230.346,272.078 230.682 C 272.078 230.950,272.297 231.169,272.565 231.169 C 272.835 231.169,273.052 231.457,273.052 231.818 C 273.052 232.301,273.268 232.468,273.898 232.468 C 274.491 232.468,274.692 232.604,274.570 232.923 C 274.449 233.239,274.736 233.442,275.509 233.587 C 276.172 233.711,276.623 233.987,276.623 234.268 C 276.623 234.591,276.982 234.740,277.760 234.740 C 278.680 234.740,278.896 234.864,278.896 235.390 C 278.896 235.823,279.113 236.039,279.545 236.039 C 279.906 236.039,280.195 236.255,280.195 236.526 C 280.195 236.794,280.382 237.013,280.610 237.013 C 280.839 237.013,281.236 237.305,281.494 237.662 C 281.751 238.019,282.295 238.312,282.702 238.312 C 283.143 238.312,283.442 238.508,283.442 238.799 C 283.442 239.069,283.730 239.286,284.091 239.286 C 284.458 239.286,284.740 239.502,284.740 239.783 C 284.740 240.056,284.996 240.377,285.308 240.494 C 285.621 240.612,286.388 241.191,287.013 241.780 C 287.638 242.369,288.388 242.853,288.680 242.854 C 288.971 242.856,289.286 243.149,289.380 243.506 C 289.473 243.864,289.782 244.156,290.067 244.156 C 290.352 244.156,290.584 244.375,290.584 244.643 C 290.584 244.911,290.787 245.130,291.034 245.130 C 291.281 245.130,291.563 245.437,291.661 245.812 C 291.766 246.215,291.990 246.401,292.208 246.266 C 292.425 246.132,292.649 246.318,292.755 246.721 C 292.891 247.244,293.188 247.403,294.031 247.403 C 294.953 247.403,295.131 247.520,295.135 248.133 C 295.142 249.160,295.487 249.590,296.513 249.847 C 297.002 249.970,297.403 250.274,297.403 250.522 C 297.403 250.771,297.695 250.974,298.052 250.974 C 298.578 250.974,298.701 251.190,298.701 252.110 C 298.701 253.193,298.755 253.247,299.838 253.247 C 300.658 253.247,300.974 253.390,300.974 253.761 C 300.974 254.045,301.485 254.729,302.110 255.282 C 302.735 255.836,303.247 256.479,303.247 256.713 C 303.247 256.946,303.539 257.320,303.896 257.543 C 304.253 257.766,304.545 258.205,304.545 258.520 C 304.545 258.834,304.748 259.091,304.995 259.091 C 305.242 259.091,305.520 259.383,305.614 259.740 C 305.707 260.097,306.016 260.390,306.301 260.390 C 306.585 260.390,306.818 260.609,306.818 260.877 C 306.818 261.144,307.020 261.364,307.267 261.364 C 307.514 261.364,307.793 261.656,307.886 262.013 C 307.980 262.370,308.277 262.662,308.548 262.662 C 308.820 262.662,309.127 263.061,309.236 263.555 C 309.351 264.077,309.834 264.678,310.398 265.001 C 311.239 265.483,311.542 266.076,311.402 266.964 C 311.381 267.098,311.656 267.208,312.013 267.208 C 312.380 267.208,312.662 267.424,312.662 267.705 C 312.662 267.978,312.881 268.286,313.149 268.389 C 313.417 268.492,313.636 268.779,313.636 269.028 C 313.636 269.277,313.929 269.481,314.286 269.481 C 314.876 269.481,315.161 270.321,314.974 271.510 C 314.952 271.644,315.227 271.753,315.584 271.753 C 315.951 271.753,316.234 271.970,316.234 272.250 C 316.234 272.524,316.453 272.832,316.721 272.935 C 316.989 273.037,317.208 273.272,317.208 273.457 C 317.208 273.641,317.424 273.954,317.689 274.153 C 318.094 274.456,318.368 275.225,318.482 276.380 C 318.496 276.514,318.726 276.623,318.994 276.623 C 319.261 276.623,319.481 276.843,319.481 277.110 C 319.481 277.381,319.769 277.597,320.130 277.597 C 320.487 277.597,320.779 277.809,320.779 278.068 C 320.779 278.327,321.005 278.666,321.282 278.820 C 321.558 278.975,321.809 279.421,321.838 279.811 C 321.867 280.201,322.015 280.519,322.166 280.519 C 322.317 280.519,322.369 280.635,322.282 280.777 C 322.194 280.918,322.395 281.055,322.728 281.080 C 323.061 281.105,323.642 281.434,324.019 281.812 C 325.091 282.883,333.117 282.713,333.117 281.618 C 333.117 281.212,333.517 281.027,334.172 281.130 C 334.306 281.152,334.416 280.667,334.416 280.054 C 334.416 279.225,334.582 278.887,335.065 278.734 C 335.422 278.620,335.714 278.334,335.714 278.097 C 335.714 277.861,335.933 277.583,336.201 277.480 C 336.538 277.351,336.688 276.825,336.688 275.777 C 336.688 274.707,336.856 274.137,337.256 273.844 C 338.082 273.239,338.059 264.613,337.230 263.696 C 336.770 263.188,336.688 262.282,336.688 257.685 C 336.688 253.091,336.615 252.273,336.201 252.273 C 335.834 252.273,335.708 251.855,335.687 250.568 C 335.645 247.918,335.531 247.335,334.972 246.926 C 334.635 246.680,334.426 245.963,334.377 244.883 C 334.333 243.913,334.156 243.246,333.953 243.282 C 333.743 243.319,333.572 242.567,333.524 241.396 C 333.408 238.596,333.146 237.336,332.697 237.423 C 332.460 237.470,332.265 237.018,332.204 236.282 C 332.139 235.486,331.942 235.065,331.636 235.065 C 331.361 235.065,331.169 234.748,331.169 234.294 C 331.169 232.708,330.766 231.454,330.313 231.628 C 329.979 231.756,329.870 231.436,329.870 230.328 C 329.870 229.288,329.759 228.927,329.490 229.093 C 329.237 229.249,329.178 229.152,329.311 228.804 C 329.454 228.431,329.373 228.333,329.029 228.465 C 328.763 228.568,328.568 228.524,328.597 228.368 C 328.809 227.205,328.516 225.649,328.084 225.649 C 327.744 225.649,327.597 225.307,327.597 224.513 C 327.597 223.593,327.474 223.377,326.948 223.377 C 326.386 223.377,326.299 223.160,326.299 221.775 C 326.299 220.473,326.181 220.136,325.666 219.973 C 325.270 219.847,325.103 219.589,325.221 219.282 C 325.343 218.963,325.168 218.729,324.717 218.612 C 324.067 218.441,323.806 217.485,324.003 215.986 C 324.032 215.760,323.845 215.495,323.586 215.395 C 323.327 215.296,323.022 214.714,322.907 214.101 C 322.789 213.473,322.503 212.987,322.251 212.987 C 322.006 212.987,321.709 212.550,321.592 212.017 C 321.475 211.483,321.221 210.949,321.029 210.830 C 320.806 210.693,320.774 210.769,320.942 211.039 C 321.115 211.320,321.077 211.386,320.829 211.232 C 320.623 211.105,320.455 210.644,320.455 210.208 C 320.455 209.720,320.267 209.416,319.968 209.416 C 319.635 209.416,319.468 209.055,319.440 208.279 C 319.378 206.537,319.357 206.470,318.750 206.026 C 318.438 205.797,318.182 205.444,318.182 205.240 C 318.182 205.037,317.963 204.870,317.695 204.870 C 317.424 204.870,317.208 204.582,317.208 204.221 C 317.208 203.864,317.062 203.571,316.883 203.571 C 316.705 203.571,316.576 203.462,316.597 203.328 C 316.698 202.687,316.517 202.484,316.234 202.922 C 315.995 203.292,315.918 203.155,315.914 202.354 C 315.911 201.635,315.754 201.299,315.422 201.299 C 315.009 201.299,314.762 200.515,314.890 199.614 C 314.908 199.491,314.633 199.298,314.279 199.186 C 313.803 199.035,313.636 198.693,313.636 197.868 C 313.636 197.255,313.527 196.771,313.393 196.792 C 312.720 196.898,312.338 196.704,312.338 196.256 C 312.338 195.983,312.119 195.675,311.851 195.572 C 311.583 195.469,311.364 195.108,311.364 194.770 C 311.364 194.432,311.097 193.889,310.771 193.563 C 310.445 193.237,310.084 192.725,309.969 192.426 C 309.854 192.128,309.622 191.883,309.452 191.883 C 309.282 191.883,309.044 191.435,308.924 190.887 C 308.803 190.339,308.500 189.812,308.249 189.716 C 307.998 189.620,307.792 189.337,307.792 189.089 C 307.792 188.840,307.573 188.636,307.305 188.636 C 307.037 188.636,306.818 188.404,306.818 188.119 C 306.818 187.834,306.526 187.525,306.169 187.432 C 305.681 187.304,305.519 186.989,305.519 186.163 C 305.519 185.559,305.410 185.082,305.276 185.103 C 304.603 185.210,304.221 185.016,304.221 184.568 C 304.221 184.294,304.002 183.986,303.734 183.884 C 303.466 183.781,303.247 183.419,303.247 183.079 C 303.247 182.739,302.955 182.211,302.597 181.905 C 302.240 181.599,301.948 181.163,301.948 180.934 C 301.948 180.706,301.729 180.519,301.461 180.519 C 301.193 180.519,300.974 180.287,300.974 180.002 C 300.974 179.717,300.682 179.408,300.325 179.315 C 299.859 179.193,299.675 178.872,299.675 178.178 C 299.675 177.487,299.492 177.164,299.030 177.043 C 298.674 176.950,298.461 176.750,298.555 176.597 C 298.649 176.445,298.429 176.134,298.065 175.907 C 297.700 175.679,297.403 175.309,297.403 175.084 C 297.403 174.859,297.110 174.675,296.753 174.675 C 296.320 174.675,296.104 174.459,296.104 174.026 C 296.104 173.665,295.887 173.377,295.617 173.377 C 295.314 173.377,295.130 173.070,295.130 172.568 C 295.130 172.110,294.848 171.582,294.481 171.353 C 294.123 171.130,293.831 170.774,293.831 170.561 C 293.831 170.348,293.537 170.080,293.177 169.966 C 292.817 169.852,292.600 169.633,292.695 169.481 C 292.789 169.328,292.572 169.109,292.213 168.995 C 291.853 168.881,291.558 168.578,291.558 168.322 C 291.558 168.066,291.266 167.565,290.909 167.208 C 290.552 166.851,290.260 166.339,290.260 166.071 C 290.260 165.804,290.036 165.584,289.763 165.584 C 289.398 165.584,289.285 165.287,289.340 164.469 C 289.382 163.856,289.527 163.423,289.663 163.507 C 290.055 163.749,291.283 162.355,291.033 161.951 C 290.897 161.730,290.956 161.679,291.184 161.820 C 291.418 161.964,291.558 161.815,291.558 161.421 C 291.558 161.063,291.840 160.716,292.208 160.620 C 292.565 160.527,292.857 160.218,292.857 159.933 C 292.857 159.648,293.076 159.416,293.344 159.416 C 293.615 159.416,293.831 159.127,293.831 158.766 C 293.831 158.333,294.048 158.117,294.481 158.117 C 294.841 158.117,295.130 157.900,295.130 157.630 C 295.130 157.362,295.349 157.143,295.617 157.143 C 295.887 157.143,296.104 156.854,296.104 156.494 C 296.104 155.912,296.441 155.692,297.159 155.806 C 297.293 155.827,297.403 155.557,297.403 155.205 C 297.403 154.778,297.560 154.626,297.876 154.748 C 298.192 154.869,298.420 154.649,298.561 154.088 C 298.677 153.625,298.975 153.247,299.224 153.247 C 299.505 153.247,299.675 152.894,299.675 152.311 C 299.675 151.647,299.865 151.325,300.325 151.205 C 300.682 151.111,300.974 150.802,300.974 150.517 C 300.974 150.233,301.193 150.000,301.461 150.000 C 301.729 150.000,301.948 149.791,301.948 149.535 C 301.948 149.279,302.224 148.982,302.562 148.875 C 302.900 148.768,303.256 148.378,303.352 148.009 C 303.464 147.582,303.673 147.427,303.924 147.582 C 304.163 147.730,304.238 147.693,304.111 147.488 C 303.996 147.302,304.256 146.917,304.690 146.633 C 305.203 146.296,305.513 145.747,305.580 145.055 C 305.641 144.418,305.844 144.026,306.088 144.075 C 306.311 144.119,306.494 143.937,306.494 143.669 C 306.494 143.401,306.717 143.182,306.991 143.182 C 307.264 143.182,307.582 142.926,307.697 142.614 C 307.812 142.301,308.088 141.935,308.311 141.800 C 308.533 141.665,308.809 141.129,308.923 140.610 C 309.037 140.090,309.341 139.584,309.598 139.485 C 309.855 139.387,310.065 139.014,310.065 138.657 C 310.065 138.183,310.212 138.064,310.608 138.216 C 311.020 138.374,311.101 138.293,310.943 137.881 C 310.828 137.582,310.876 137.338,311.049 137.338 C 311.222 137.338,311.364 137.134,311.364 136.885 C 311.364 136.637,311.583 136.349,311.851 136.246 C 312.119 136.143,312.338 135.779,312.338 135.436 C 312.338 135.041,312.546 134.829,312.906 134.858 C 313.218 134.882,313.494 134.683,313.518 134.416 C 313.542 134.148,313.578 133.673,313.599 133.360 C 313.620 133.048,313.869 132.792,314.154 132.792 C 314.438 132.792,314.748 132.500,314.841 132.143 C 314.934 131.786,315.213 131.494,315.460 131.494 C 315.757 131.494,315.909 131.108,315.909 130.357 C 315.909 129.651,316.066 129.221,316.324 129.221 C 316.773 129.221,317.899 128.061,318.215 127.273 C 318.322 127.005,318.598 126.786,318.828 126.786 C 319.058 126.786,319.292 126.357,319.347 125.833 C 319.403 125.310,319.675 124.755,319.952 124.600 C 320.228 124.445,320.455 123.888,320.455 123.360 C 320.455 122.619,320.601 122.403,321.104 122.403 C 321.523 122.403,321.753 122.186,321.753 121.791 C 321.753 121.453,322.043 121.104,322.403 121.010 C 322.875 120.886,323.052 120.567,323.052 119.836 C 323.052 119.159,323.211 118.831,323.539 118.831 C 323.877 118.831,324.026 118.491,324.026 117.717 C 324.026 116.887,324.192 116.549,324.675 116.396 C 325.038 116.281,325.325 115.905,325.325 115.543 C 325.325 115.188,325.463 114.982,325.633 115.087 C 325.802 115.192,326.035 114.776,326.150 114.162 C 326.284 113.449,326.583 112.988,326.979 112.885 C 327.419 112.770,327.597 112.434,327.597 111.719 C 327.597 111.042,327.756 110.714,328.084 110.714 C 328.352 110.714,328.571 110.439,328.571 110.103 C 328.571 109.764,328.861 109.415,329.221 109.322 C 329.751 109.183,329.870 108.879,329.870 107.660 C 329.870 106.551,329.995 106.169,330.357 106.169 C 330.625 106.169,330.862 106.023,330.885 105.844 C 330.907 105.666,330.944 105.399,330.966 105.253 C 330.988 105.106,331.262 104.730,331.575 104.418 C 331.887 104.105,332.143 103.444,332.143 102.949 C 332.143 102.454,332.435 101.784,332.792 101.461 C 333.199 101.093,333.442 100.461,333.442 99.768 C 333.442 99.160,333.571 98.743,333.729 98.841 C 334.059 99.045,334.405 97.965,334.411 96.710 C 334.414 96.130,334.625 95.800,335.065 95.685 C 335.422 95.592,335.714 95.298,335.714 95.033 C 335.714 94.767,335.933 94.466,336.201 94.363 C 336.545 94.231,336.688 93.695,336.688 92.543 C 336.688 91.126,336.774 90.909,337.338 90.909 C 337.695 90.909,337.970 90.800,337.949 90.666 C 337.740 89.346,338.051 87.338,338.464 87.338 C 338.754 87.338,338.868 87.147,338.754 86.851 C 338.651 86.583,338.729 86.364,338.926 86.364 C 339.124 86.364,339.286 86.061,339.286 85.691 C 339.286 85.321,339.505 84.799,339.773 84.532 C 340.184 84.120,340.508 81.298,340.285 80.074 C 340.256 79.918,340.434 79.868,340.679 79.962 C 341.181 80.154,341.166 80.213,341.412 77.114 C 341.530 75.621,341.753 74.755,342.062 74.582 C 342.433 74.374,342.532 73.469,342.532 70.286 C 342.532 66.950,342.611 66.284,342.990 66.430 C 344.006 66.820,344.093 58.004,343.084 56.890 C 342.654 56.415,342.532 55.658,342.532 53.465 C 342.532 51.179,342.441 50.649,342.045 50.649 C 341.778 50.649,341.558 50.495,341.558 50.306 C 341.558 50.116,341.741 50.065,341.964 50.191 C 342.289 50.374,342.289 50.332,341.964 49.983 C 341.741 49.742,341.556 49.173,341.553 48.718 C 341.548 47.790,341.147 47.003,340.710 47.060 C 340.552 47.081,340.382 46.692,340.333 46.195 C 340.171 44.555,339.920 43.802,339.601 43.999 C 339.428 44.107,339.286 43.880,339.286 43.495 C 339.286 43.069,339.032 42.730,338.636 42.627 C 338.181 42.507,337.987 42.184,337.987 41.542 C 337.987 40.913,337.784 40.564,337.338 40.422 C 336.981 40.309,336.688 40.002,336.688 39.741 C 336.688 39.479,336.469 39.181,336.201 39.078 C 335.933 38.976,335.714 38.688,335.714 38.439 C 335.714 38.030,335.316 37.845,334.659 37.949 C 334.525 37.970,334.416 37.695,334.416 37.338 C 334.416 36.977,334.199 36.688,333.929 36.688 C 333.661 36.688,333.442 36.466,333.442 36.193 C 333.442 35.921,333.076 35.559,332.630 35.390 C 332.183 35.220,331.818 34.963,331.818 34.819 C 331.818 34.675,331.425 34.525,330.944 34.485 C 330.022 34.409,329.458 33.846,329.779 33.326 C 329.884 33.156,329.807 33.118,329.607 33.241 C 329.408 33.364,328.913 33.134,328.509 32.730 C 328.051 32.272,327.218 31.926,326.305 31.815 C 325.393 31.705,324.868 31.487,324.919 31.241 C 324.970 30.989,324.586 30.844,323.864 30.844 C 323.113 30.844,322.727 30.692,322.727 30.395 C 322.727 29.901,321.763 29.557,320.363 29.550 C 319.867 29.547,319.383 29.345,319.289 29.100 C 319.165 28.776,318.354 28.639,316.322 28.599 C 314.103 28.555,313.441 28.429,313.120 27.989 C 312.666 27.368,298.936 27.021,297.517 27.595 M219.318 51.299 C 219.189 51.508,219.229 51.826,219.407 52.005 C 219.624 52.221,219.810 52.202,219.968 51.948 C 220.097 51.738,220.057 51.421,219.878 51.242 C 219.662 51.026,219.475 51.045,219.318 51.299 M217.938 70.345 C 217.715 70.435,217.532 70.716,217.532 70.969 C 217.532 71.344,216.670 71.429,212.825 71.429 C 208.856 71.429,208.117 71.505,208.117 71.916 C 208.117 72.284,207.720 72.403,206.494 72.403 C 205.087 72.403,204.870 72.489,204.870 73.052 C 204.870 73.623,204.654 73.701,203.084 73.701 C 201.515 73.701,201.299 73.780,201.299 74.351 C 201.299 74.921,201.082 75.000,199.513 75.000 C 198.142 75.000,197.727 75.113,197.727 75.487 C 197.727 75.856,197.327 75.974,196.074 75.974 C 194.693 75.974,194.392 76.081,194.250 76.623 C 194.122 77.111,193.807 77.273,192.982 77.273 C 192.222 77.273,191.883 77.423,191.883 77.760 C 191.883 78.088,191.555 78.247,190.879 78.247 C 190.147 78.247,189.828 78.423,189.704 78.896 C 189.611 79.253,189.333 79.545,189.086 79.545 C 188.838 79.545,188.636 79.765,188.636 80.032 C 188.636 80.353,188.316 80.519,187.702 80.519 C 186.766 80.519,185.857 81.203,186.258 81.605 C 186.376 81.722,186.155 81.818,185.768 81.818 C 185.281 81.818,185.065 82.018,185.065 82.468 C 185.065 82.900,184.848 83.117,184.416 83.117 C 184.055 83.117,183.766 83.333,183.766 83.604 C 183.766 83.872,183.547 84.091,183.279 84.091 C 183.009 84.091,182.792 84.380,182.792 84.740 C 182.792 85.266,182.576 85.390,181.656 85.390 C 180.574 85.390,180.519 85.444,180.519 86.526 C 180.519 87.446,180.396 87.662,179.870 87.662 C 179.509 87.662,179.221 87.879,179.221 88.149 C 179.221 88.417,178.988 88.636,178.703 88.636 C 178.419 88.636,178.110 88.929,178.016 89.286 C 177.923 89.643,177.644 89.935,177.397 89.935 C 177.150 89.935,176.948 90.227,176.948 90.584 C 176.948 91.017,176.732 91.234,176.299 91.234 C 175.773 91.234,175.649 91.450,175.649 92.370 C 175.649 93.164,175.502 93.506,175.162 93.506 C 174.822 93.506,174.675 93.849,174.675 94.643 C 174.675 95.563,174.552 95.779,174.026 95.779 C 173.669 95.779,173.377 95.983,173.377 96.231 C 173.377 96.480,173.157 96.768,172.890 96.871 C 172.499 97.020,172.403 97.737,172.403 100.477 C 172.403 103.300,172.488 103.896,172.890 103.896 C 173.157 103.896,173.377 104.115,173.377 104.383 C 173.377 104.744,173.757 104.870,174.848 104.870 C 175.856 104.870,176.378 104.717,176.506 104.383 C 176.627 104.068,177.130 103.896,177.930 103.896 C 179.483 103.896,180.195 103.630,180.195 103.050 C 180.195 102.749,180.576 102.597,181.331 102.597 C 182.251 102.597,182.468 102.474,182.468 101.948 C 182.468 101.377,182.684 101.299,184.253 101.299 C 185.624 101.299,186.039 101.186,186.039 100.812 C 186.039 100.438,186.454 100.325,187.825 100.325 C 189.394 100.325,189.610 100.246,189.610 99.675 C 189.610 99.197,189.827 99.026,190.432 99.026 C 190.884 99.026,191.338 98.807,191.441 98.539 C 191.555 98.241,192.047 98.052,192.708 98.052 C 193.502 98.052,193.842 97.880,193.994 97.403 C 194.107 97.045,194.482 96.753,194.827 96.753 C 195.172 96.753,195.455 96.534,195.455 96.266 C 195.455 95.938,195.783 95.779,196.459 95.779 C 197.190 95.779,197.510 95.603,197.633 95.130 C 197.963 93.870,199.242 94.298,199.088 95.617 C 198.988 96.468,198.801 96.753,198.341 96.753 C 197.944 96.753,197.727 96.982,197.727 97.403 C 197.727 97.763,197.511 98.052,197.240 98.052 C 196.972 98.052,196.753 98.335,196.753 98.682 C 196.753 99.175,196.490 99.333,195.536 99.412 C 194.861 99.468,194.300 99.694,194.278 99.919 C 194.255 100.142,194.219 100.617,194.196 100.974 C 194.174 101.331,193.937 101.623,193.669 101.623 C 193.401 101.623,193.182 101.843,193.182 102.110 C 193.182 102.448,192.808 102.613,191.964 102.647 C 191.295 102.674,190.530 102.711,190.264 102.729 C 189.999 102.746,189.732 103.016,189.672 103.329 C 189.612 103.641,189.354 103.896,189.100 103.896 C 188.845 103.896,188.636 104.115,188.636 104.383 C 188.636 104.726,188.290 104.870,187.470 104.870 C 186.576 104.870,186.263 105.022,186.133 105.519 C 186.005 106.007,185.690 106.169,184.865 106.169 C 183.983 106.169,183.766 106.297,183.766 106.818 C 183.766 107.344,183.550 107.468,182.630 107.468 C 181.836 107.468,181.494 107.614,181.494 107.955 C 181.494 108.341,181.025 108.442,179.221 108.442 C 177.165 108.442,176.948 108.503,176.948 109.091 C 176.948 109.718,176.732 109.740,170.617 109.740 C 165.206 109.740,164.286 109.811,164.286 110.227 C 164.286 110.646,163.236 110.714,156.788 110.714 C 149.563 110.714,149.284 110.738,149.120 111.364 C 148.970 111.939,144.597 112.390,142.451 112.051 C 142.317 112.030,142.208 112.232,142.208 112.500 C 142.208 112.895,141.681 112.987,139.418 112.987 C 136.901 112.987,136.611 113.051,136.458 113.636 C 136.309 114.206,136.015 114.286,134.053 114.286 C 132.035 114.286,131.818 114.349,131.818 114.935 C 131.818 115.476,131.602 115.584,130.519 115.584 C 129.582 115.584,129.221 115.720,129.221 116.071 C 129.221 116.439,128.824 116.558,127.597 116.558 C 126.190 116.558,125.974 116.645,125.974 117.208 C 125.974 117.733,125.758 117.857,124.838 117.857 C 124.044 117.857,123.701 118.004,123.701 118.344 C 123.701 118.687,123.355 118.831,122.535 118.831 C 121.641 118.831,121.328 118.983,121.198 119.481 C 121.077 119.943,120.755 120.130,120.082 120.130 C 119.540 120.130,119.056 120.338,118.949 120.617 C 118.840 120.899,118.354 121.104,117.792 121.104 C 117.095 121.104,116.775 121.287,116.653 121.753 C 116.559 122.110,116.281 122.403,116.034 122.403 C 115.787 122.403,115.584 122.695,115.584 123.052 C 115.584 123.593,115.368 123.701,114.286 123.701 C 113.348 123.701,112.987 123.837,112.987 124.188 C 112.987 124.456,112.768 124.675,112.500 124.675 C 112.229 124.675,112.013 124.964,112.013 125.325 C 112.013 125.758,111.797 125.974,111.364 125.974 C 111.003 125.974,110.714 126.190,110.714 126.461 C 110.714 126.729,110.495 126.948,110.227 126.948 C 109.957 126.948,109.740 127.237,109.740 127.597 C 109.740 128.030,109.524 128.247,109.091 128.247 C 108.730 128.247,108.442 128.463,108.442 128.734 C 108.442 129.002,108.222 129.221,107.955 129.221 C 107.684 129.221,107.468 129.509,107.468 129.870 C 107.468 130.237,107.251 130.519,106.970 130.519 C 106.697 130.519,106.378 130.775,106.261 131.088 C 106.145 131.400,105.784 131.847,105.460 132.080 C 105.135 132.313,104.870 132.861,104.870 133.298 C 104.870 133.786,104.683 134.091,104.383 134.091 C 104.113 134.091,103.896 134.380,103.896 134.740 C 103.896 135.097,103.787 135.372,103.653 135.351 C 102.873 135.228,102.597 135.493,102.597 136.364 C 102.597 137.013,102.435 137.338,102.110 137.338 C 101.721 137.338,101.623 137.825,101.623 139.773 C 101.623 141.991,101.566 142.208,100.974 142.208 C 100.410 142.208,100.321 142.433,100.299 143.912 C 100.285 144.850,100.199 145.433,100.109 145.209 C 99.627 144.013,99.350 145.667,99.346 149.776 C 99.343 152.524,99.200 154.580,98.993 154.870 C 98.713 155.261,98.676 155.213,98.805 154.626 C 98.893 154.224,98.833 153.977,98.671 154.077 C 98.198 154.370,98.332 155.523,98.864 155.727 C 99.259 155.878,99.351 156.643,99.351 159.785 C 99.351 162.927,99.442 163.692,99.838 163.844 C 100.205 163.985,100.325 164.579,100.325 166.269 C 100.325 168.410,100.455 168.691,101.380 168.545 C 101.514 168.524,101.623 169.091,101.623 169.805 C 101.623 170.743,101.759 171.104,102.110 171.104 C 102.378 171.104,102.597 171.323,102.597 171.591 C 102.597 171.861,102.886 172.078,103.247 172.078 C 103.772 172.078,103.896 172.294,103.896 173.214 C 103.896 174.008,104.043 174.351,104.383 174.351 C 104.654 174.351,104.870 174.639,104.870 175.000 C 104.870 175.433,105.087 175.649,105.519 175.649 C 105.952 175.649,106.169 175.866,106.169 176.299 C 106.169 176.732,106.385 176.948,106.818 176.948 C 107.344 176.948,107.468 177.165,107.468 178.084 C 107.468 179.015,107.588 179.221,108.136 179.221 C 108.504 179.221,108.721 179.356,108.618 179.522 C 108.516 179.688,108.726 179.917,109.086 180.031 C 109.446 180.145,109.740 180.521,109.740 180.866 C 109.740 181.367,109.970 181.494,110.877 181.494 C 111.959 181.494,112.013 181.548,112.013 182.630 C 112.013 183.712,112.067 183.766,113.149 183.766 C 114.069 183.766,114.286 183.890,114.286 184.416 C 114.286 184.848,114.502 185.065,114.935 185.065 C 115.296 185.065,115.584 185.281,115.584 185.552 C 115.584 185.820,115.787 186.039,116.034 186.039 C 116.281 186.039,116.559 186.331,116.653 186.688 C 116.746 187.045,117.055 187.338,117.340 187.338 C 117.624 187.338,117.857 187.557,117.857 187.825 C 117.857 188.165,118.200 188.312,118.994 188.312 C 119.913 188.312,120.130 188.435,120.130 188.961 C 120.130 189.487,120.346 189.610,121.266 189.610 C 122.060 189.610,122.403 189.757,122.403 190.097 C 122.403 190.368,122.691 190.584,123.052 190.584 C 123.485 190.584,123.701 190.801,123.701 191.234 C 123.701 191.591,123.903 191.883,124.150 191.883 C 124.397 191.883,124.677 192.180,124.772 192.542 C 124.867 192.904,125.066 193.179,125.216 193.153 C 126.110 192.995,126.948 193.245,126.948 193.669 C 126.948 194.006,127.287 194.156,128.047 194.156 C 128.872 194.156,129.187 194.317,129.315 194.805 C 129.445 195.303,129.758 195.455,130.651 195.455 C 131.472 195.455,131.818 195.599,131.818 195.942 C 131.818 196.209,132.037 196.429,132.305 196.429 C 132.576 196.429,132.792 196.717,132.792 197.078 C 132.792 197.604,133.009 197.727,133.929 197.727 C 134.722 197.727,135.065 197.874,135.065 198.214 C 135.065 198.554,135.408 198.701,136.201 198.701 C 137.229 198.701,137.338 198.788,137.338 199.610 C 137.338 200.764,137.872 201.299,139.026 201.299 C 139.618 201.299,139.935 201.469,139.935 201.786 C 139.935 202.054,140.154 202.273,140.422 202.273 C 140.693 202.273,140.909 202.561,140.909 202.922 C 140.909 203.355,141.126 203.571,141.558 203.571 C 142.037 203.571,142.208 203.788,142.208 204.393 C 142.208 204.845,142.427 205.299,142.695 205.402 C 142.963 205.505,143.182 205.866,143.182 206.204 C 143.182 206.602,143.411 206.818,143.831 206.818 C 144.372 206.818,144.481 207.035,144.481 208.117 C 144.481 209.055,144.616 209.416,144.968 209.416 C 145.235 209.416,145.455 209.635,145.455 209.903 C 145.455 210.173,145.743 210.390,146.104 210.390 C 146.675 210.390,146.753 210.606,146.753 212.175 C 146.753 213.745,146.832 213.961,147.403 213.961 C 147.928 213.961,148.052 214.177,148.052 215.097 C 148.052 215.891,148.199 216.234,148.539 216.234 C 148.879 216.234,149.026 216.576,149.026 217.370 C 149.026 218.290,149.150 218.506,149.675 218.506 C 150.108 218.506,150.325 218.723,150.325 219.156 C 150.325 219.589,150.108 219.805,149.675 219.805 C 149.242 219.805,149.026 220.022,149.026 220.455 C 149.026 220.980,148.810 221.104,147.890 221.104 C 147.096 221.104,146.753 221.251,146.753 221.591 C 146.753 221.931,146.411 222.078,145.617 222.078 C 144.697 222.078,144.481 222.202,144.481 222.727 C 144.481 223.253,144.264 223.377,143.344 223.377 C 142.551 223.377,142.208 223.524,142.208 223.864 C 142.208 224.235,141.802 224.351,140.500 224.351 C 139.144 224.351,138.709 224.484,138.387 225.000 C 138.079 225.493,137.630 225.649,136.523 225.649 C 135.530 225.649,135.091 225.779,135.146 226.055 C 135.195 226.300,134.795 226.502,134.136 226.566 C 133.384 226.637,132.993 226.865,132.880 227.296 C 132.759 227.759,132.430 227.922,131.618 227.922 C 130.736 227.922,130.519 228.050,130.519 228.571 C 130.519 229.142,130.303 229.221,128.734 229.221 C 127.363 229.221,126.948 229.334,126.948 229.708 C 126.948 230.076,126.551 230.195,125.325 230.195 C 123.918 230.195,123.701 230.281,123.701 230.844 C 123.701 231.415,123.485 231.494,121.916 231.494 C 120.545 231.494,120.130 231.607,120.130 231.981 C 120.130 232.421,118.493 232.648,115.990 232.555 C 115.767 232.546,115.584 232.816,115.584 233.153 C 115.584 233.680,115.333 233.766,113.799 233.766 C 112.428 233.766,112.013 233.879,112.013 234.253 C 112.013 234.648,111.487 234.740,109.223 234.740 C 106.706 234.740,106.416 234.804,106.263 235.390 C 106.110 235.975,105.820 236.039,103.341 236.039 C 100.862 236.039,100.572 236.103,100.419 236.688 C 100.266 237.272,99.976 237.338,97.562 237.338 C 95.473 237.338,94.833 237.446,94.688 237.825 C 94.527 238.244,93.046 238.312,84.101 238.312 C 75.073 238.312,73.701 238.247,73.701 237.825 C 73.701 237.451,73.286 237.338,71.916 237.338 C 70.346 237.338,70.130 237.259,70.130 236.688 C 70.130 236.102,69.913 236.039,67.895 236.039 C 66.027 236.039,65.635 235.944,65.509 235.462 C 65.409 235.078,64.993 234.858,64.261 234.802 C 63.657 234.756,63.043 234.504,62.897 234.242 C 62.750 233.981,62.199 233.766,61.672 233.766 C 61.070 233.766,60.714 233.598,60.714 233.314 C 60.714 232.747,60.008 232.468,58.577 232.468 C 57.807 232.468,57.468 232.318,57.468 231.981 C 57.468 231.710,57.179 231.494,56.818 231.494 C 56.385 231.494,56.169 231.277,56.169 230.844 C 56.169 230.483,55.952 230.195,55.682 230.195 C 55.414 230.195,55.195 229.976,55.195 229.708 C 55.195 229.437,54.906 229.221,54.545 229.221 C 54.113 229.221,53.896 229.004,53.896 228.571 C 53.896 228.139,53.680 227.922,53.247 227.922 C 52.817 227.922,52.597 227.706,52.597 227.283 C 52.597 226.848,52.442 226.704,52.110 226.831 C 51.772 226.960,51.623 226.808,51.623 226.333 C 51.623 225.866,51.418 225.649,50.974 225.649 C 50.388 225.649,50.121 224.988,50.286 223.945 C 50.307 223.811,50.106 223.701,49.838 223.701 C 49.535 223.701,49.351 223.395,49.351 222.890 C 49.351 222.294,49.177 222.078,48.701 222.078 C 48.176 222.078,48.052 221.861,48.052 220.942 C 48.052 220.148,47.905 219.805,47.565 219.805 C 47.196 219.805,47.078 219.405,47.078 218.151 C 47.078 216.771,46.971 216.470,46.429 216.328 C 45.417 216.063,45.417 198.805,46.429 197.890 C 46.946 197.422,47.078 196.890,47.078 195.277 C 47.078 193.776,47.204 193.203,47.565 193.064 C 47.909 192.933,48.052 192.397,48.052 191.244 C 48.052 189.827,48.138 189.610,48.701 189.610 C 49.242 189.610,49.351 189.394,49.351 188.312 C 49.351 187.374,49.486 187.013,49.838 187.013 C 50.224 187.013,50.325 186.544,50.325 184.740 C 50.325 182.684,50.387 182.468,50.974 182.468 C 51.500 182.468,51.623 182.251,51.623 181.331 C 51.623 180.538,51.770 180.195,52.110 180.195 C 52.378 180.195,52.597 179.935,52.597 179.617 C 52.597 179.299,52.890 178.829,53.247 178.571 C 53.693 178.250,53.896 177.731,53.896 176.914 C 53.896 175.998,54.045 175.686,54.545 175.555 C 55.018 175.432,55.195 175.112,55.195 174.381 C 55.195 173.705,55.354 173.377,55.682 173.377 C 56.022 173.377,56.169 173.034,56.169 172.240 C 56.169 171.320,56.293 171.104,56.818 171.104 C 57.344 171.104,57.468 170.887,57.468 169.968 C 57.468 169.174,57.614 168.831,57.955 168.831 C 58.225 168.831,58.442 168.543,58.442 168.182 C 58.442 167.749,58.658 167.532,59.091 167.532 C 59.617 167.532,59.740 167.316,59.740 166.396 C 59.740 165.602,59.887 165.260,60.227 165.260 C 60.567 165.260,60.714 164.917,60.714 164.123 C 60.714 163.203,60.838 162.987,61.364 162.987 C 61.783 162.987,62.013 162.771,62.013 162.376 C 62.013 162.037,62.303 161.688,62.662 161.594 C 63.135 161.471,63.312 161.151,63.312 160.420 C 63.312 159.744,63.471 159.416,63.799 159.416 C 64.132 159.416,64.286 159.082,64.286 158.357 C 64.286 157.651,64.501 157.164,64.935 156.894 C 65.292 156.670,65.584 156.333,65.584 156.143 C 65.584 155.953,65.804 155.579,66.071 155.311 C 66.339 155.043,66.558 154.542,66.558 154.198 C 66.558 153.788,66.783 153.571,67.208 153.571 C 67.675 153.571,67.857 153.355,67.857 152.799 C 67.857 152.375,68.076 151.846,68.344 151.623 C 68.612 151.401,68.831 150.945,68.831 150.610 C 68.831 150.274,69.055 150.000,69.329 150.000 C 69.602 150.000,69.958 149.671,70.120 149.269 C 70.281 148.868,70.423 148.676,70.434 148.845 C 70.466 149.316,71.405 147.954,71.429 147.403 C 71.456 146.787,72.551 145.455,73.031 145.455 C 73.230 145.455,73.535 145.080,73.709 144.623 C 73.883 144.166,74.171 143.883,74.350 143.993 C 74.544 144.113,74.675 143.728,74.675 143.039 C 74.675 142.209,74.818 141.883,75.181 141.883 C 75.460 141.883,75.629 141.774,75.558 141.640 C 75.388 141.321,76.512 140.257,76.759 140.503 C 76.863 140.607,76.948 140.466,76.948 140.189 C 76.948 139.913,77.241 139.609,77.600 139.516 C 78.604 139.253,78.269 137.904,77.163 137.756 C 76.688 137.692,76.299 137.763,76.299 137.914 C 76.299 138.064,76.069 138.471,75.788 138.818 C 75.507 139.164,75.383 139.243,75.513 138.992 C 75.670 138.690,75.622 138.615,75.370 138.771 C 75.160 138.900,75.060 139.121,75.147 139.261 C 75.388 139.651,73.976 140.797,72.959 141.038 C 72.412 141.168,71.934 141.570,71.748 142.059 C 71.580 142.502,70.927 143.337,70.299 143.914 C 69.670 144.491,69.156 145.162,69.156 145.406 C 69.156 145.678,68.956 145.772,68.639 145.650 C 68.294 145.518,68.065 145.668,67.952 146.103 C 67.858 146.460,67.579 146.753,67.332 146.753 C 67.035 146.753,66.883 147.139,66.883 147.890 C 66.883 148.810,66.759 149.026,66.234 149.026 C 65.801 149.026,65.584 149.242,65.584 149.675 C 65.584 150.108,65.368 150.325,64.935 150.325 C 64.578 150.325,64.286 150.528,64.286 150.777 C 64.286 151.026,64.067 151.313,63.799 151.416 C 63.531 151.519,63.312 151.827,63.312 152.100 C 63.312 152.374,63.093 152.597,62.825 152.597 C 62.557 152.597,62.338 152.821,62.338 153.095 C 62.338 153.368,62.054 153.697,61.708 153.825 C 61.361 153.954,61.075 154.205,61.071 154.383 C 61.068 154.562,60.767 154.754,60.402 154.812 C 60.000 154.875,59.740 155.162,59.740 155.542 C 59.740 155.887,59.521 156.169,59.253 156.169 C 58.913 156.169,58.766 156.512,58.766 157.305 C 58.766 158.225,58.643 158.442,58.117 158.442 C 57.756 158.442,57.468 158.658,57.468 158.929 C 57.468 159.196,57.235 159.416,56.950 159.416 C 56.666 159.416,56.356 159.708,56.263 160.065 C 56.170 160.422,55.891 160.714,55.644 160.714 C 55.347 160.714,55.195 161.100,55.195 161.851 C 55.195 162.771,55.071 162.987,54.545 162.987 C 54.113 162.987,53.896 163.203,53.896 163.636 C 53.896 163.997,53.680 164.286,53.409 164.286 C 53.141 164.286,52.922 164.505,52.922 164.773 C 52.922 165.043,52.633 165.260,52.273 165.260 C 51.840 165.260,51.623 165.476,51.623 165.909 C 51.623 166.270,51.407 166.558,51.136 166.558 C 50.796 166.558,50.649 166.901,50.649 167.695 C 50.649 168.615,50.526 168.831,50.000 168.831 C 49.643 168.831,49.351 169.015,49.351 169.240 C 49.351 169.465,49.058 169.831,48.701 170.055 C 48.287 170.313,48.052 170.812,48.052 171.431 C 48.052 172.078,47.889 172.403,47.565 172.403 C 47.297 172.403,47.078 172.622,47.078 172.890 C 47.078 173.157,46.854 173.377,46.581 173.377 C 46.307 173.377,45.990 173.632,45.875 173.945 C 45.760 174.257,45.472 174.630,45.236 174.773 C 44.999 174.915,44.805 175.463,44.805 175.990 C 44.805 176.592,44.637 176.948,44.353 176.948 C 43.856 176.948,43.506 177.630,43.506 178.598 C 43.506 178.941,43.287 179.221,43.019 179.221 C 42.749 179.221,42.532 179.509,42.532 179.870 C 42.532 180.303,42.316 180.519,41.883 180.519 C 41.357 180.519,41.234 180.736,41.234 181.656 C 41.234 182.576,41.110 182.792,40.584 182.792 C 40.059 182.792,39.935 183.009,39.935 183.929 C 39.935 184.722,39.788 185.065,39.448 185.065 C 39.180 185.065,38.961 185.267,38.961 185.514 C 38.961 185.761,38.669 186.040,38.312 186.133 C 37.814 186.263,37.662 186.576,37.662 187.470 C 37.662 188.290,37.518 188.636,37.175 188.636 C 36.907 188.636,36.688 188.838,36.688 189.086 C 36.688 189.333,36.396 189.611,36.039 189.704 C 35.542 189.835,35.390 190.147,35.390 191.041 C 35.390 191.820,35.240 192.208,34.939 192.208 C 34.691 192.208,34.495 192.390,34.503 192.614 C 34.581 194.710,34.388 195.455,33.766 195.455 C 33.245 195.455,33.117 195.671,33.117 196.553 C 33.117 197.378,32.955 197.694,32.468 197.821 C 32.110 197.915,31.818 198.224,31.818 198.509 C 31.818 198.793,31.599 199.026,31.331 199.026 C 30.965 199.026,30.844 199.419,30.844 200.611 C 30.844 201.924,30.732 202.226,30.195 202.367 C 29.664 202.506,29.545 202.810,29.545 204.038 C 29.545 205.074,29.394 205.598,29.058 205.727 C 28.761 205.841,28.571 206.333,28.571 206.993 C 28.571 207.788,28.400 208.128,27.922 208.279 C 27.388 208.449,27.273 208.770,27.273 210.087 C 27.273 211.294,27.153 211.688,26.786 211.688 C 26.384 211.688,26.299 212.279,26.299 215.058 C 26.299 218.257,25.913 219.636,25.214 218.937 C 25.096 218.819,25.000 221.815,25.000 225.595 C 25.000 232.251,25.020 232.468,25.649 232.468 C 26.251 232.468,26.299 232.684,26.299 235.390 C 26.299 237.771,26.389 238.312,26.786 238.312 C 27.126 238.312,27.273 238.654,27.273 239.448 C 27.273 240.368,27.396 240.584,27.922 240.584 C 28.355 240.584,28.571 240.801,28.571 241.234 C 28.571 241.595,28.788 241.883,29.058 241.883 C 29.386 241.883,29.545 242.211,29.545 242.888 C 29.545 243.607,29.723 243.938,30.172 244.056 C 30.517 244.146,30.878 244.425,30.974 244.675 C 31.070 244.927,31.588 245.130,32.133 245.130 C 33.041 245.130,33.117 245.217,33.117 246.266 C 33.117 247.348,33.171 247.403,34.253 247.403 C 35.173 247.403,35.390 247.526,35.390 248.052 C 35.390 248.471,35.606 248.701,36.001 248.701 C 36.340 248.701,36.688 248.991,36.782 249.351 C 36.906 249.823,37.225 250.000,37.957 250.000 C 38.633 250.000,38.961 250.159,38.961 250.487 C 38.961 250.827,39.304 250.974,40.097 250.974 C 41.017 250.974,41.234 251.098,41.234 251.623 C 41.234 252.194,41.450 252.273,43.019 252.273 C 44.390 252.273,44.805 252.386,44.805 252.760 C 44.805 253.145,45.265 253.247,47.000 253.247 C 48.843 253.247,49.259 253.351,49.600 253.896 C 49.965 254.481,50.357 254.545,53.548 254.545 C 57.127 254.545,58.251 254.715,57.946 255.209 C 57.854 255.357,61.580 255.492,66.227 255.509 C 73.603 255.534,74.675 255.475,74.675 255.042 C 74.675 254.620,75.362 254.545,79.251 254.545 C 83.554 254.545,83.837 254.507,83.997 253.896 C 84.155 253.291,84.440 253.247,88.187 253.247 C 91.545 253.247,92.208 253.166,92.208 252.760 C 92.208 252.391,92.608 252.273,93.862 252.273 C 95.242 252.273,95.543 252.166,95.685 251.623 C 95.834 251.053,96.128 250.974,98.090 250.974 C 99.860 250.974,100.325 250.873,100.325 250.487 C 100.325 250.092,100.851 250.000,103.115 250.000 C 105.632 250.000,105.922 249.936,106.075 249.351 C 106.223 248.786,106.518 248.701,108.347 248.701 C 110.177 248.701,110.472 248.617,110.620 248.052 C 110.763 247.504,111.063 247.403,112.538 247.403 C 113.875 247.403,114.286 247.288,114.286 246.916 C 114.286 246.548,114.683 246.429,115.909 246.429 C 117.316 246.429,117.532 246.342,117.532 245.779 C 117.532 245.238,117.749 245.130,118.831 245.130 C 119.769 245.130,120.130 244.995,120.130 244.643 C 120.130 244.256,120.599 244.156,122.403 244.156 C 124.459 244.156,124.675 244.094,124.675 243.506 C 124.675 242.943,124.892 242.857,126.309 242.857 C 127.461 242.857,127.997 242.714,128.129 242.370 C 128.238 242.088,128.723 241.883,129.286 241.883 C 129.983 241.883,130.303 241.700,130.425 241.234 C 130.563 240.706,130.868 240.584,132.049 240.584 C 133.229 240.584,133.534 240.462,133.672 239.935 C 133.805 239.426,134.115 239.286,135.103 239.286 C 136.007 239.286,136.364 239.148,136.364 238.799 C 136.364 238.459,136.706 238.312,137.500 238.312 C 138.420 238.312,138.636 238.188,138.636 237.662 C 138.636 237.100,138.853 237.013,140.260 237.013 C 141.486 237.013,141.883 236.894,141.883 236.526 C 141.883 236.255,142.172 236.039,142.532 236.039 C 142.965 236.039,143.182 235.823,143.182 235.390 C 143.182 234.819,143.398 234.740,144.968 234.740 C 146.338 234.740,146.753 234.627,146.753 234.253 C 146.753 233.925,147.081 233.766,147.758 233.766 C 148.489 233.766,148.808 233.590,148.932 233.117 C 149.059 232.629,149.375 232.468,150.200 232.468 C 151.082 232.468,151.299 232.340,151.299 231.818 C 151.299 231.293,151.515 231.169,152.435 231.169 C 153.229 231.169,153.571 231.022,153.571 230.682 C 153.571 230.308,153.986 230.195,155.357 230.195 C 156.926 230.195,157.143 230.116,157.143 229.545 C 157.143 229.020,157.359 228.896,158.279 228.896 C 159.030 228.896,159.416 228.744,159.416 228.447 C 159.416 228.200,159.708 227.921,160.065 227.828 C 160.422 227.735,160.714 227.425,160.714 227.141 C 160.714 226.766,161.027 226.623,161.851 226.623 C 162.644 226.623,162.987 226.476,162.987 226.136 C 162.987 225.708,164.524 225.414,165.694 225.620 C 165.843 225.646,166.043 225.372,166.137 225.009 C 166.233 224.642,166.580 224.351,166.921 224.351 C 167.316 224.351,167.532 224.121,167.532 223.701 C 167.532 223.176,167.749 223.052,168.669 223.052 C 169.462 223.052,169.805 222.905,169.805 222.565 C 169.805 222.294,170.094 222.078,170.455 222.078 C 170.887 222.078,171.104 221.861,171.104 221.429 C 171.104 220.866,171.320 220.779,172.727 220.779 C 173.954 220.779,174.351 220.660,174.351 220.292 C 174.351 220.022,174.639 219.805,175.000 219.805 C 175.433 219.805,175.649 219.589,175.649 219.156 C 175.649 218.630,175.866 218.506,176.786 218.506 C 177.537 218.506,177.922 218.354,177.922 218.057 C 177.922 217.810,178.214 217.532,178.571 217.438 C 178.929 217.345,179.221 217.036,179.221 216.751 C 179.221 216.376,179.534 216.234,180.357 216.234 C 181.277 216.234,181.494 216.110,181.494 215.584 C 181.494 215.059,181.710 214.935,182.630 214.935 C 183.424 214.935,183.766 214.788,183.766 214.448 C 183.766 214.177,184.055 213.961,184.416 213.961 C 184.848 213.961,185.065 213.745,185.065 213.312 C 185.065 212.805,185.281 212.662,186.049 212.662 C 186.624 212.662,187.111 212.460,187.220 212.175 C 187.336 211.875,187.829 211.688,188.509 211.688 C 189.394 211.688,189.610 211.561,189.610 211.039 C 189.610 210.518,189.827 210.390,190.709 210.390 C 191.540 210.390,191.849 210.229,191.980 209.731 C 192.074 209.369,192.347 209.113,192.586 209.163 C 192.824 209.213,192.979 209.058,192.929 208.819 C 192.879 208.581,193.135 208.308,193.497 208.213 C 193.865 208.117,194.156 207.771,194.156 207.430 C 194.156 206.947,194.396 206.818,195.292 206.818 C 196.086 206.818,196.429 206.671,196.429 206.331 C 196.429 206.003,196.757 205.844,197.433 205.844 C 198.164 205.844,198.484 205.668,198.607 205.195 C 198.701 204.835,199.050 204.545,199.389 204.545 C 199.725 204.545,200.000 204.343,200.000 204.095 C 200.000 203.836,200.486 203.553,201.136 203.431 C 201.817 203.303,202.273 203.028,202.273 202.745 C 202.273 202.485,202.565 202.273,202.922 202.273 C 203.283 202.273,203.571 202.056,203.571 201.786 C 203.571 201.518,203.791 201.299,204.058 201.299 C 204.329 201.299,204.545 201.010,204.545 200.649 C 204.545 200.124,204.762 200.000,205.682 200.000 C 206.602 200.000,206.818 199.876,206.818 199.351 C 206.818 198.918,207.035 198.701,207.468 198.701 C 207.828 198.701,208.117 198.485,208.117 198.214 C 208.117 197.944,208.405 197.727,208.766 197.727 C 209.199 197.727,209.416 197.511,209.416 197.078 C 209.416 196.571,209.632 196.429,210.400 196.429 C 210.975 196.429,211.462 196.226,211.571 195.942 C 211.674 195.674,211.961 195.455,212.210 195.455 C 212.459 195.455,212.662 195.162,212.662 194.805 C 212.662 194.372,212.879 194.156,213.312 194.156 C 213.672 194.156,213.961 193.939,213.961 193.669 C 213.961 193.341,214.289 193.182,214.965 193.182 C 215.681 193.182,216.017 193.003,216.132 192.562 C 216.221 192.222,216.573 191.870,216.913 191.781 C 217.254 191.692,217.532 191.386,217.532 191.102 C 217.532 190.817,217.752 190.584,218.019 190.584 C 218.287 190.584,218.506 190.365,218.506 190.097 C 218.506 189.827,218.795 189.610,219.156 189.610 C 219.513 189.610,220.097 189.318,220.455 188.961 C 220.812 188.604,221.323 188.312,221.591 188.312 C 221.859 188.312,222.078 188.093,222.078 187.825 C 222.078 187.557,222.297 187.338,222.565 187.338 C 222.835 187.338,223.052 187.049,223.052 186.688 C 223.052 186.255,223.268 186.039,223.701 186.039 C 224.058 186.039,224.351 185.826,224.351 185.567 C 224.351 185.284,224.807 185.009,225.487 184.881 C 226.138 184.759,226.623 184.475,226.623 184.217 C 226.623 183.969,226.856 183.766,227.141 183.766 C 227.425 183.766,227.735 183.474,227.828 183.117 C 227.921 182.760,228.200 182.468,228.447 182.468 C 228.694 182.468,228.896 182.248,228.896 181.981 C 228.896 181.710,229.185 181.494,229.545 181.494 C 229.978 181.494,230.195 181.277,230.195 180.844 C 230.195 180.483,230.411 180.195,230.682 180.195 C 230.950 180.195,231.169 179.976,231.169 179.708 C 231.169 179.437,231.457 179.221,231.818 179.221 C 232.251 179.221,232.468 179.004,232.468 178.571 C 232.468 178.137,232.684 177.922,233.120 177.922 C 233.479 177.922,234.023 177.630,234.329 177.273 C 234.634 176.916,235.065 176.623,235.285 176.623 C 235.505 176.623,235.781 176.112,235.898 175.487 C 236.092 174.454,236.211 174.351,237.211 174.351 C 237.973 174.351,238.312 174.201,238.312 173.864 C 238.312 173.596,238.531 173.377,238.799 173.377 C 239.069 173.377,239.286 173.088,239.286 172.727 C 239.286 172.294,239.502 172.078,239.935 172.078 C 240.296 172.078,240.584 171.861,240.584 171.591 C 240.584 171.323,240.817 171.104,241.102 171.104 C 241.386 171.104,241.696 170.812,241.789 170.455 C 241.882 170.097,242.161 169.805,242.408 169.805 C 242.655 169.805,242.857 169.586,242.857 169.318 C 242.857 169.050,243.090 168.831,243.375 168.831 C 243.659 168.831,243.968 168.539,244.062 168.182 C 244.155 167.825,244.434 167.532,244.681 167.532 C 244.928 167.532,245.130 167.240,245.130 166.883 C 245.130 166.450,245.346 166.234,245.779 166.234 C 246.140 166.234,246.429 166.017,246.429 165.747 C 246.429 165.479,246.648 165.260,246.916 165.260 C 247.186 165.260,247.403 164.971,247.403 164.610 C 247.403 164.177,247.619 163.961,248.052 163.961 C 248.413 163.961,248.701 163.745,248.701 163.474 C 248.701 163.203,248.990 162.987,249.351 162.987 C 249.784 162.987,250.000 162.771,250.000 162.338 C 250.000 161.977,250.216 161.688,250.487 161.688 C 250.755 161.688,250.974 161.469,250.974 161.201 C 250.974 160.933,251.207 160.714,251.491 160.714 C 251.776 160.714,252.085 160.422,252.179 160.065 C 252.272 159.708,252.551 159.416,252.798 159.416 C 253.045 159.416,253.247 159.123,253.247 158.766 C 253.247 158.333,253.463 158.117,253.896 158.117 C 254.257 158.117,254.545 157.900,254.545 157.630 C 254.545 157.362,254.765 157.143,255.032 157.143 C 255.303 157.143,255.519 156.854,255.519 156.494 C 255.519 156.061,255.736 155.844,256.169 155.844 C 256.530 155.844,256.818 155.628,256.818 155.357 C 256.818 155.089,257.051 154.870,257.336 154.870 C 257.620 154.870,257.929 154.578,258.023 154.221 C 258.116 153.864,258.395 153.571,258.642 153.571 C 258.939 153.571,259.091 153.186,259.091 152.435 C 259.091 151.353,259.145 151.299,260.227 151.299 C 261.147 151.299,261.364 151.175,261.364 150.649 C 261.364 150.216,261.580 150.000,262.013 150.000 C 262.370 150.000,262.662 149.796,262.662 149.548 C 262.662 149.299,262.881 149.011,263.149 148.909 C 263.434 148.799,263.636 148.313,263.636 147.737 C 263.636 146.970,263.779 146.753,264.286 146.753 C 264.719 146.753,264.935 146.537,264.935 146.104 C 264.935 145.747,265.118 145.452,265.341 145.449 C 266.104 145.438,267.208 143.927,267.208 142.893 C 267.208 141.955,267.289 141.883,268.344 141.883 C 269.426 141.883,269.481 141.829,269.481 140.747 C 269.481 139.827,269.604 139.610,270.130 139.610 C 270.491 139.610,270.779 139.394,270.779 139.123 C 270.779 138.856,270.998 138.636,271.266 138.636 C 271.537 138.636,271.753 138.348,271.753 137.987 C 271.753 137.554,271.970 137.338,272.403 137.338 C 272.928 137.338,273.052 137.121,273.052 136.201 C 273.052 135.281,273.176 135.065,273.701 135.065 C 274.134 135.065,274.351 134.848,274.351 134.416 C 274.351 134.055,274.567 133.766,274.838 133.766 C 275.106 133.766,275.325 133.547,275.325 133.279 C 275.325 133.009,275.613 132.792,275.974 132.792 C 276.407 132.792,276.623 132.576,276.623 132.143 C 276.623 131.782,276.840 131.494,277.110 131.494 C 277.451 131.494,277.597 131.151,277.597 130.357 C 277.597 129.437,277.721 129.221,278.247 129.221 C 278.608 129.221,278.896 129.004,278.896 128.734 C 278.896 128.466,279.115 128.247,279.383 128.247 C 279.654 128.247,279.870 127.958,279.870 127.597 C 279.870 127.165,280.087 126.948,280.519 126.948 C 281.041 126.948,281.169 126.732,281.169 125.850 C 281.169 125.024,281.330 124.709,281.818 124.581 C 282.291 124.458,282.468 124.138,282.468 123.407 C 282.468 122.731,282.627 122.403,282.955 122.403 C 283.222 122.403,283.442 122.146,283.442 121.831 C 283.442 121.517,283.734 121.078,284.091 120.855 C 284.458 120.625,284.740 120.097,284.740 119.640 C 284.740 119.138,284.925 118.831,285.227 118.831 C 285.498 118.831,285.714 118.543,285.714 118.182 C 285.714 117.749,285.931 117.532,286.364 117.532 C 286.885 117.532,287.013 117.316,287.013 116.431 C 287.013 115.751,287.200 115.258,287.500 115.142 C 287.785 115.033,287.987 114.547,287.987 113.971 C 287.987 113.078,288.109 112.946,288.880 113.006 C 289.014 113.017,289.209 112.688,289.314 112.276 C 289.420 111.863,289.669 111.560,289.869 111.603 C 290.069 111.645,290.328 111.170,290.444 110.547 C 290.566 109.900,290.850 109.416,291.108 109.416 C 291.406 109.416,291.558 109.032,291.558 108.279 C 291.558 107.564,291.715 107.143,291.980 107.143 C 292.659 107.143,293.327 104.949,292.830 104.351 C 292.097 103.467,290.761 103.913,290.647 105.081 C 290.579 105.788,290.344 106.156,289.884 106.276 C 289.519 106.372,289.317 106.606,289.435 106.797 C 289.553 106.988,289.312 107.285,288.899 107.457 C 287.749 107.937,287.013 108.620,287.013 109.208 C 287.013 109.501,286.874 109.740,286.703 109.740 C 286.253 109.740,284.774 111.289,285.004 111.519 C 285.111 111.626,284.878 111.798,284.486 111.900 C 284.094 112.003,283.847 112.206,283.938 112.352 C 284.028 112.498,283.953 112.709,283.772 112.821 C 283.590 112.934,283.442 113.309,283.442 113.656 C 283.442 114.002,283.222 114.286,282.955 114.286 C 282.684 114.286,282.468 114.574,282.468 114.935 C 282.468 115.368,282.251 115.584,281.818 115.584 C 281.457 115.584,281.169 115.801,281.169 116.071 C 281.169 116.339,280.950 116.558,280.682 116.558 C 280.411 116.558,280.195 116.847,280.195 117.208 C 280.195 117.641,279.978 117.857,279.545 117.857 C 279.185 117.857,278.896 118.074,278.896 118.344 C 278.896 118.615,278.608 118.831,278.247 118.831 C 277.890 118.831,277.597 118.977,277.597 119.156 C 277.597 119.334,277.378 119.481,277.110 119.481 C 276.814 119.481,276.623 119.783,276.623 120.254 C 276.623 120.755,276.394 121.088,275.974 121.198 C 275.617 121.291,275.325 121.601,275.325 121.885 C 275.325 122.170,275.106 122.403,274.838 122.403 C 274.567 122.403,274.351 122.691,274.351 123.052 C 274.351 123.485,274.134 123.701,273.701 123.701 C 273.176 123.701,273.052 123.918,273.052 124.838 C 273.052 125.631,272.905 125.974,272.565 125.974 C 272.297 125.974,272.078 126.178,272.078 126.427 C 272.078 126.718,271.615 126.924,270.779 127.004 C 269.705 127.106,269.481 127.028,269.481 126.551 C 269.481 126.234,269.261 125.974,268.994 125.974 C 268.591 125.974,268.506 125.375,268.506 122.535 C 268.506 119.368,268.455 119.082,267.857 118.925 C 267.254 118.767,267.208 118.482,267.208 114.887 C 267.208 111.748,267.116 110.983,266.721 110.832 C 266.438 110.723,266.234 110.238,266.234 109.675 C 266.234 108.987,266.050 108.657,265.600 108.540 C 265.093 108.407,264.947 108.041,264.870 106.703 C 264.799 105.478,264.643 105.032,264.286 105.032 C 263.927 105.032,263.773 104.583,263.701 103.328 C 263.630 102.102,263.471 101.623,263.132 101.623 C 262.812 101.623,262.662 101.262,262.662 100.487 C 262.662 99.567,262.539 99.351,262.013 99.351 C 261.472 99.351,261.364 99.134,261.364 98.052 C 261.364 97.114,261.228 96.753,260.877 96.753 C 260.549 96.753,260.390 96.425,260.390 95.749 C 260.390 95.017,260.213 94.698,259.740 94.575 C 259.252 94.447,259.091 94.132,259.091 93.306 C 259.091 92.546,258.941 92.208,258.604 92.208 C 258.336 92.208,258.117 91.989,258.117 91.721 C 258.117 91.450,257.828 91.234,257.468 91.234 C 256.926 91.234,256.818 91.017,256.818 89.935 C 256.818 88.853,256.710 88.636,256.169 88.636 C 255.808 88.636,255.519 88.420,255.519 88.149 C 255.519 87.881,255.300 87.662,255.032 87.662 C 254.692 87.662,254.545 87.320,254.545 86.526 C 254.545 85.606,254.422 85.390,253.896 85.390 C 253.463 85.390,253.247 85.173,253.247 84.740 C 253.247 84.380,253.030 84.091,252.760 84.091 C 252.492 84.091,252.273 83.872,252.273 83.604 C 252.273 83.333,251.984 83.117,251.623 83.117 C 251.190 83.117,250.974 82.900,250.974 82.468 C 250.974 82.110,250.772 81.818,250.525 81.818 C 250.278 81.818,249.999 81.526,249.906 81.169 C 249.813 80.812,249.503 80.519,249.219 80.519 C 248.934 80.519,248.701 80.300,248.701 80.032 C 248.701 79.762,248.413 79.545,248.052 79.545 C 247.691 79.545,247.403 79.329,247.403 79.058 C 247.403 78.429,246.246 77.273,245.617 77.273 C 245.346 77.273,245.130 76.984,245.130 76.623 C 245.130 76.098,244.913 75.974,243.994 75.974 C 243.307 75.974,242.853 75.813,242.846 75.568 C 242.830 74.956,241.682 73.701,241.138 73.701 C 240.875 73.701,240.583 73.405,240.488 73.043 C 240.393 72.680,240.193 72.405,240.044 72.432 C 238.806 72.650,237.013 72.344,237.013 71.916 C 237.013 71.530,236.548 71.429,234.778 71.429 C 232.816 71.429,232.523 71.349,232.373 70.779 C 232.209 70.150,219.378 69.764,217.938 70.345 M201.299 93.793 C 201.299 94.132,201.009 94.481,200.649 94.575 C 200.133 94.710,200.000 94.585,200.000 93.963 C 200.000 93.398,200.180 93.182,200.649 93.182 C 201.069 93.182,201.299 93.398,201.299 93.793 " stroke="none" fill="#ffffff" fill-rule="evenodd"></path></g></svg>